<?xml version="1.0" encoding="UTF-8" standalone="no"?>
<!DOCTYPE svg PUBLIC "-//W3C//DTD SVG 1.1//EN" "http://www.w3.org/Graphics/SVG/1.1/DTD/svg11.dtd">
<svg width="100%" height="100%" viewBox="0 0 500 200" version="1.1" xmlns="http://www.w3.org/2000/svg" xmlns:xlink="http://www.w3.org/1999/xlink" xml:space="preserve" xmlns:serif="http://www.serif.com/" style="fill-rule:evenodd;clip-rule:evenodd;stroke-linejoin:round;stroke-miterlimit:2;">
    <g transform="matrix(1.33333,0,0,1.33333,205.129,140.463)">
        <g>
            <g>
                <path d="M5.391,-64.141C5.453,-64.266 5.5,-64.383 5.531,-64.5C5.563,-64.625 5.609,-64.719 5.672,-64.781C5.785,-64.895 5.906,-64.953 6.031,-64.953C6.332,-65.078 6.523,-65.195 6.609,-65.313C6.703,-65.438 6.688,-65.676 6.563,-66.031C7.582,-66.508 8.645,-66.867 9.75,-67.109C10.863,-67.348 11.992,-67.531 13.141,-67.656L13.141,-68.203C13.797,-68.254 14.422,-68.281 15.016,-68.281C15.617,-68.281 16.223,-68.461 16.828,-68.828C16.766,-68.461 16.805,-68.176 16.953,-67.969C17.109,-67.758 17.035,-67.535 16.734,-67.297C17.453,-67.359 18.141,-67.414 18.797,-67.469C19.461,-67.531 20.094,-67.594 20.688,-67.656C20.75,-67.352 20.988,-67.266 21.406,-67.391C21.531,-67.391 21.664,-67.414 21.813,-67.469C21.969,-67.531 22.102,-67.563 22.219,-67.563C22.344,-67.625 22.492,-67.656 22.672,-67.656C22.973,-67.414 23.301,-67.266 23.656,-67.203C24.02,-67.141 24.352,-67.051 24.656,-66.938C24.77,-66.875 24.898,-66.875 25.047,-66.938C25.203,-67 25.367,-67.055 25.547,-67.109C25.848,-66.754 26.238,-66.531 26.719,-66.438C27.195,-66.352 27.676,-66.219 28.156,-66.031C28.039,-65.977 27.922,-65.891 27.797,-65.766C27.68,-65.648 27.563,-65.563 27.438,-65.5C27.801,-65.133 27.863,-64.801 27.625,-64.5C27.563,-64.383 27.516,-64.266 27.484,-64.141C27.453,-64.023 27.438,-63.906 27.438,-63.781C27.438,-63.664 27.477,-63.547 27.563,-63.422C27.656,-63.305 27.582,-63.219 27.344,-63.156C27.344,-62.977 27.375,-62.891 27.438,-62.891C27.676,-62.828 27.93,-62.781 28.203,-62.75C28.473,-62.719 28.727,-62.676 28.969,-62.625C28.906,-62.563 28.813,-62.516 28.688,-62.484C28.57,-62.453 28.457,-62.406 28.344,-62.344C28.219,-62.289 28.094,-62.234 27.969,-62.172C27.852,-62.109 27.738,-62.02 27.625,-61.906C27.5,-61.844 27.406,-61.734 27.344,-61.578C27.289,-61.43 27.203,-61.297 27.078,-61.172C27.141,-60.879 27.051,-60.641 26.813,-60.453L27.703,-60.453C27.828,-60.211 27.914,-60.004 27.969,-59.828C28.031,-59.648 28.094,-59.5 28.156,-59.375C28.156,-59.32 28.066,-59.297 27.891,-59.297C27.891,-59.234 27.906,-59.156 27.938,-59.063C27.969,-58.969 27.984,-58.895 27.984,-58.844C28.098,-58.602 28.004,-58.363 27.703,-58.125C27.461,-58 27.191,-57.906 26.891,-57.844C26.598,-57.789 26.301,-57.672 26,-57.484C25.938,-57.484 25.891,-57.469 25.859,-57.438C25.836,-57.414 25.797,-57.406 25.734,-57.406C25.191,-57.457 24.68,-57.379 24.203,-57.172C23.723,-56.961 23.211,-56.859 22.672,-56.859C22.305,-56.859 21.977,-56.77 21.688,-56.594C21.563,-56.594 21.453,-56.563 21.359,-56.5C21.273,-56.438 21.172,-56.379 21.047,-56.328C20.629,-56.266 20.207,-56.234 19.781,-56.234C19.363,-56.234 18.914,-56.172 18.438,-56.047C18.02,-55.984 17.613,-55.879 17.219,-55.734C16.832,-55.586 16.398,-55.453 15.922,-55.328C15.68,-55.266 15.426,-55.203 15.156,-55.141C14.883,-55.086 14.602,-55 14.313,-54.875C14.125,-54.82 13.91,-54.676 13.672,-54.438C13.797,-54.195 13.883,-53.953 13.938,-53.703C14,-53.461 14.063,-53.254 14.125,-53.078C14.125,-52.66 14.156,-52.363 14.219,-52.188C14.332,-51.707 14.445,-51.195 14.563,-50.656C14.688,-50.113 14.781,-49.57 14.844,-49.031C14.844,-48.613 14.914,-48.223 15.063,-47.859C15.219,-47.504 15.266,-47.113 15.203,-46.688C15.141,-46.445 15.156,-46.207 15.25,-45.969C15.344,-45.727 15.328,-45.52 15.203,-45.344C15.086,-45.039 15.117,-44.801 15.297,-44.625C15.598,-44.445 15.656,-44.266 15.469,-44.078C15.227,-43.898 15.125,-43.723 15.156,-43.547C15.188,-43.367 15.234,-43.219 15.297,-43.094C15.598,-42.852 15.719,-42.566 15.656,-42.234C15.594,-41.91 15.563,-41.598 15.563,-41.297C15.563,-40.879 15.578,-40.414 15.609,-39.906C15.641,-39.395 15.688,-38.898 15.75,-38.422C15.75,-38.18 15.895,-38.063 16.188,-38.063C16.313,-38.063 16.398,-38.07 16.453,-38.094C16.516,-38.125 16.578,-38.141 16.641,-38.141C16.941,-38.266 17.242,-38.352 17.547,-38.406C17.848,-38.469 18.117,-38.5 18.359,-38.5C18.648,-38.5 18.961,-38.57 19.297,-38.719C19.629,-38.875 19.945,-38.984 20.25,-39.047C20.488,-39.16 20.738,-39.25 21,-39.313C21.27,-39.375 21.523,-39.344 21.766,-39.219C21.891,-39.164 22.039,-39.18 22.219,-39.266C22.395,-39.359 22.578,-39.438 22.766,-39.5C22.879,-39.563 23.008,-39.602 23.156,-39.625C23.313,-39.656 23.453,-39.703 23.578,-39.766C23.867,-39.891 24.047,-40.07 24.109,-40.313C24.172,-40.488 24.352,-40.578 24.656,-40.578C24.77,-40.453 24.914,-40.391 25.094,-40.391C25.695,-40.391 26.086,-40.125 26.266,-39.594C26.391,-39.645 26.492,-39.672 26.578,-39.672C26.672,-39.672 26.75,-39.703 26.813,-39.766C27.113,-40.004 27.441,-40.141 27.797,-40.172C28.16,-40.203 28.52,-40.25 28.875,-40.313C29,-40.313 29.133,-40.336 29.281,-40.391C29.438,-40.453 29.57,-40.516 29.688,-40.578C29.813,-40.453 30.051,-40.27 30.406,-40.031C30.707,-39.789 30.738,-39.551 30.5,-39.313C30.258,-39.07 30.211,-38.848 30.359,-38.641C30.516,-38.43 30.531,-38.207 30.406,-37.969C30.707,-37.969 30.922,-37.938 31.047,-37.875C31.047,-37.938 31.07,-38 31.125,-38.063C31.125,-37.875 31.188,-37.723 31.313,-37.609C31.488,-37.672 31.664,-37.727 31.844,-37.781C32.031,-37.844 32.242,-37.906 32.484,-37.969C32.359,-37.789 32.238,-37.582 32.125,-37.344C32.363,-37.219 32.57,-37.125 32.75,-37.063C32.625,-36.945 32.5,-36.813 32.375,-36.656C32.258,-36.508 32.145,-36.348 32.031,-36.172C32.27,-36.172 32.445,-36.141 32.563,-36.078C32.563,-36.016 32.504,-35.863 32.391,-35.625C32.504,-35.563 32.609,-35.516 32.703,-35.484C32.797,-35.461 32.867,-35.422 32.922,-35.359L32.922,-35.172C32.504,-34.879 32.352,-34.566 32.469,-34.234C32.594,-33.898 32.742,-33.582 32.922,-33.281C33.047,-33.164 33.047,-32.895 32.922,-32.469C32.805,-32.051 32.66,-31.785 32.484,-31.672C32.359,-31.43 32.207,-31.219 32.031,-31.031C31.852,-30.852 31.672,-30.645 31.484,-30.406L32.125,-30.406C32.063,-30.227 31.984,-30.063 31.891,-29.906C31.805,-29.758 31.734,-29.598 31.672,-29.422C31.547,-29.359 31.422,-29.281 31.297,-29.188C31.18,-29.102 31.066,-29 30.953,-28.875C30.828,-28.82 30.676,-28.766 30.5,-28.703C30.32,-28.641 30.141,-28.551 29.953,-28.438C29.898,-28.375 29.813,-28.313 29.688,-28.25C29.57,-28.188 29.453,-28.125 29.328,-28.063C29.211,-28.008 29.078,-27.969 28.922,-27.938C28.773,-27.906 28.641,-27.859 28.516,-27.797C28.398,-27.734 28.281,-27.703 28.156,-27.703C28.039,-27.703 27.922,-27.645 27.797,-27.531C27.68,-27.469 27.578,-27.422 27.484,-27.391C27.391,-27.359 27.285,-27.375 27.172,-27.438C27.047,-27.563 26.984,-27.563 26.984,-27.438C26.742,-27.258 26.473,-27.172 26.172,-27.172C25.879,-27.172 25.582,-27.109 25.281,-26.984C25.039,-26.93 24.816,-26.859 24.609,-26.766C24.398,-26.672 24.145,-26.625 23.844,-26.625C23.602,-26.688 23.332,-26.656 23.031,-26.531C22.727,-26.414 22.426,-26.328 22.125,-26.266C21.883,-26.211 21.613,-26.172 21.313,-26.141C21.02,-26.109 20.723,-26.031 20.422,-25.906C20.066,-25.852 19.691,-25.797 19.297,-25.734C18.91,-25.672 18.566,-25.551 18.266,-25.375C17.898,-25.133 17.391,-25.07 16.734,-25.188C16.078,-25.188 15.75,-24.859 15.75,-24.203C15.75,-24.141 15.719,-24.047 15.656,-23.922C15.594,-23.805 15.531,-23.691 15.469,-23.578C15.707,-23.453 15.922,-23.332 16.109,-23.219C16.047,-22.977 15.953,-22.723 15.828,-22.453C15.711,-22.18 15.625,-21.895 15.563,-21.594C15.5,-21.352 15.5,-21.113 15.563,-20.875C15.625,-20.633 15.656,-20.363 15.656,-20.063C15.656,-19.758 15.641,-19.473 15.609,-19.203C15.578,-18.93 15.563,-18.648 15.563,-18.359C15.5,-18.117 15.469,-17.906 15.469,-17.719L15.469,-17.188C15.531,-16.645 15.547,-16.117 15.516,-15.609C15.484,-15.098 15.469,-14.602 15.469,-14.125C15.414,-13.883 15.414,-13.645 15.469,-13.406C15.531,-13.164 15.473,-12.895 15.297,-12.594C15.297,-12.531 15.352,-12.426 15.469,-12.281C15.594,-12.133 15.688,-12 15.75,-11.875C15.508,-11.695 15.398,-11.457 15.422,-11.156C15.453,-10.852 15.258,-10.645 14.844,-10.531C15.145,-10.469 15.297,-10.254 15.297,-9.891C15.234,-9.598 15.203,-9.301 15.203,-9C15.203,-8.695 15.172,-8.395 15.109,-8.094C15.109,-7.977 15.051,-7.859 14.938,-7.734C15.113,-7.555 15.289,-7.406 15.469,-7.281C15.113,-7.039 14.961,-6.738 15.016,-6.375C15.078,-6.02 15.082,-5.664 15.031,-5.313L15.031,-4.625C15.031,-4.414 15,-4.191 14.938,-3.953L14.938,-2.344C14.938,-1.801 14.906,-1.258 14.844,-0.719C14.844,-0.539 14.754,-0.363 14.578,-0.188C13.859,0.352 13.379,1.016 13.141,1.797C12.953,2.336 12.5,2.816 11.781,3.234C11.301,3.359 11.094,3.629 11.156,4.047C11.156,4.047 11.066,4.133 10.891,4.313C10.828,4.375 10.797,4.438 10.797,4.5C10.797,4.563 10.766,4.648 10.703,4.766L10.172,4.766C10.172,4.648 10.18,4.516 10.203,4.359C10.234,4.211 10.25,4.078 10.25,3.953C10.008,3.66 9.695,3.469 9.313,3.375C8.926,3.281 8.641,3.023 8.453,2.609C8.336,2.367 8.16,2.234 7.922,2.203C7.68,2.172 7.469,2.188 7.281,2.25C7.102,2.313 6.926,2.367 6.75,2.422C6.57,2.484 6.422,2.633 6.297,2.875C6.234,2.938 6.129,2.984 5.984,3.016C5.836,3.047 5.703,3.094 5.578,3.156C5.578,2.906 5.609,2.691 5.672,2.516C5.734,2.336 5.641,2.188 5.391,2.063C5.273,2.008 5.141,1.969 4.984,1.938C4.836,1.906 4.676,1.859 4.5,1.797C4.375,1.316 4.25,0.82 4.125,0.313C4.008,-0.195 3.895,-0.723 3.781,-1.266C3.719,-1.379 3.703,-1.477 3.734,-1.563C3.766,-1.656 3.781,-1.734 3.781,-1.797C3.895,-1.922 3.953,-2.008 3.953,-2.063C3.773,-2.539 3.727,-3.004 3.813,-3.453C3.906,-3.91 3.863,-4.348 3.688,-4.766C3.625,-4.891 3.625,-5.039 3.688,-5.219C3.75,-5.395 3.813,-5.547 3.875,-5.672C3.875,-5.973 3.898,-6.18 3.953,-6.297C3.953,-6.66 3.984,-7.02 4.047,-7.375C4.109,-7.738 4.078,-8.066 3.953,-8.359C3.898,-8.723 3.945,-9.023 4.094,-9.266C4.238,-9.504 4.344,-9.742 4.406,-9.984C4.469,-10.223 4.453,-10.445 4.359,-10.656C4.273,-10.863 4.203,-11.094 4.141,-11.344C4.254,-11.344 4.375,-11.281 4.5,-11.156C4.563,-11.219 4.617,-11.25 4.672,-11.25C4.555,-11.426 4.438,-11.602 4.313,-11.781C4.195,-11.969 4.078,-12.117 3.953,-12.234C4.078,-12.473 4.172,-12.625 4.234,-12.688L4.234,-14.297C4.234,-14.836 4.258,-15.348 4.313,-15.828L4.313,-17.219C4.313,-17.676 4.344,-18.113 4.406,-18.531C4.406,-18.707 4.422,-18.883 4.453,-19.063C4.484,-19.25 4.379,-19.398 4.141,-19.516C4.254,-19.641 4.344,-19.742 4.406,-19.828C4.469,-19.922 4.531,-20 4.594,-20.063C4.289,-20.363 4.211,-20.676 4.359,-21C4.516,-21.332 4.617,-21.617 4.672,-21.859C4.555,-22.336 4.438,-22.789 4.313,-23.219C4.375,-23.219 4.469,-23.273 4.594,-23.391C4.594,-23.453 4.578,-23.523 4.547,-23.609C4.516,-23.703 4.5,-23.781 4.5,-23.844C4.563,-24.563 4.234,-24.953 3.516,-25.016C3.629,-25.129 3.719,-25.219 3.781,-25.281C3.844,-25.344 3.898,-25.406 3.953,-25.469C3.773,-25.469 3.566,-25.523 3.328,-25.641C3.391,-25.703 3.438,-25.758 3.469,-25.813C3.5,-25.875 3.539,-25.938 3.594,-26C3.957,-26.414 3.957,-26.805 3.594,-27.172C3.414,-27.41 3.25,-27.648 3.094,-27.891C2.945,-28.129 2.695,-28.281 2.344,-28.344C2.219,-28.406 2.125,-28.539 2.063,-28.75C2.008,-28.957 1.922,-29.18 1.797,-29.422C2.336,-29.422 2.664,-29.629 2.781,-30.047C2.844,-30.109 2.992,-30.195 3.234,-30.313C3.359,-30.313 3.477,-30.375 3.594,-30.5C3.719,-30.738 3.883,-30.977 4.094,-31.219C4.301,-31.457 4.406,-31.695 4.406,-31.938C4.531,-32.238 4.602,-32.535 4.625,-32.828C4.656,-33.129 4.582,-33.43 4.406,-33.734C4.289,-33.859 4.234,-33.977 4.234,-34.094C4.109,-34.57 3.805,-34.93 3.328,-35.172C3.504,-35.297 3.711,-35.414 3.953,-35.531C4.191,-35.656 4.43,-35.75 4.672,-35.813L4.672,-37.063C4.672,-37.063 4.656,-37.078 4.625,-37.109C4.602,-37.141 4.563,-37.188 4.5,-37.25L4.5,-37.422C4.563,-37.484 4.617,-37.547 4.672,-37.609C4.734,-37.672 4.766,-37.758 4.766,-37.875C4.766,-38.176 4.82,-38.445 4.938,-38.688C5.063,-38.926 5.066,-39.164 4.953,-39.406C4.891,-39.707 4.875,-39.945 4.906,-40.125C4.938,-40.301 4.953,-40.508 4.953,-40.75C4.953,-41.051 4.961,-41.32 4.984,-41.563C5.016,-41.801 5.063,-42.039 5.125,-42.281C5.125,-42.582 5.066,-42.766 4.953,-42.828C4.711,-43.004 4.648,-43.148 4.766,-43.266C4.891,-43.391 4.977,-43.484 5.031,-43.547C5.219,-43.848 5.297,-44.145 5.266,-44.438C5.234,-44.738 5.188,-45.039 5.125,-45.344C5.125,-45.469 5.109,-45.602 5.078,-45.75C5.047,-45.895 5.063,-46.031 5.125,-46.156C5.125,-46.57 5.035,-46.961 4.859,-47.328C4.797,-47.441 4.734,-47.586 4.672,-47.766C4.617,-47.953 4.711,-48.102 4.953,-48.219C4.891,-48.344 4.813,-48.422 4.719,-48.453C4.633,-48.484 4.594,-48.5 4.594,-48.5C4.531,-48.914 4.469,-49.301 4.406,-49.656C4.344,-50.02 4.254,-50.41 4.141,-50.828C3.723,-50.953 3.539,-51.254 3.594,-51.734C3.594,-51.797 3.547,-51.867 3.453,-51.953C3.367,-52.047 3.297,-52.148 3.234,-52.266C3.18,-52.391 3.273,-52.492 3.516,-52.578C3.754,-52.672 3.781,-52.836 3.594,-53.078C3.832,-53.141 4.039,-53.172 4.219,-53.172L4.766,-53.172C4.766,-53.535 4.688,-53.672 4.531,-53.578C4.383,-53.484 4.254,-53.469 4.141,-53.531C4.254,-53.656 4.359,-53.789 4.453,-53.938C4.547,-54.082 4.648,-54.25 4.766,-54.438C4.586,-54.488 4.422,-54.531 4.266,-54.563C4.117,-54.594 3.957,-54.609 3.781,-54.609C3.781,-54.672 3.766,-54.727 3.734,-54.781C3.703,-54.844 3.688,-54.906 3.688,-54.969C3.813,-55.031 3.898,-55.086 3.953,-55.141C4.016,-55.203 4.109,-55.266 4.234,-55.328C3.992,-55.453 3.875,-55.539 3.875,-55.594C3.813,-55.781 3.781,-55.961 3.781,-56.141C3.781,-56.316 3.75,-56.469 3.688,-56.594C3.625,-56.707 3.531,-56.82 3.406,-56.938C3.289,-57.063 3.297,-57.188 3.422,-57.313C3.535,-57.426 3.625,-57.555 3.688,-57.703C3.75,-57.859 3.813,-58 3.875,-58.125C3.688,-58.414 3.926,-58.742 4.594,-59.109C4.531,-59.234 4.41,-59.383 4.234,-59.563C4.285,-59.563 4.328,-59.578 4.359,-59.609C4.391,-59.641 4.406,-59.656 4.406,-59.656C5.426,-59.945 5.727,-60.57 5.313,-61.531C5.313,-61.719 5.367,-61.867 5.484,-61.984C5.672,-62.109 5.941,-62.227 6.297,-62.344C6.836,-62.582 7.406,-62.941 8,-63.422C8.301,-63.66 8.602,-63.898 8.906,-64.141C9.207,-64.379 9.535,-64.563 9.891,-64.688C10.129,-64.75 10.336,-64.852 10.516,-65C10.703,-65.156 10.914,-65.289 11.156,-65.406C10.738,-65.582 10.348,-65.613 9.984,-65.5C9.566,-65.375 9.16,-65.25 8.766,-65.125C8.379,-65.008 7.977,-64.895 7.563,-64.781C7.258,-64.719 6.957,-64.641 6.656,-64.547C6.352,-64.461 6.055,-64.359 5.766,-64.234C5.578,-64.234 5.453,-64.203 5.391,-64.141C5.148,-64.023 4.926,-63.875 4.719,-63.688C4.508,-63.508 4.254,-63.332 3.953,-63.156C3.953,-63.219 3.926,-63.281 3.875,-63.344C4.051,-63.582 4.285,-63.758 4.578,-63.875C4.879,-64 5.148,-64.086 5.391,-64.141Z" style="fill:rgb(136,136,136);fill-rule:nonzero;"/>
            </g>
        </g>
    </g>
    <g transform="matrix(1.33333,0,0,1.33333,247.714,140.463)">
        <g>
            <g>
                <path d="M17,-61.813C17.188,-61.875 17.367,-61.906 17.547,-61.906C17.723,-61.906 17.898,-61.93 18.078,-61.984C18.203,-61.867 18.441,-61.691 18.797,-61.453L18,-61.453L18,-61.266C18.113,-61.203 18.242,-61.156 18.391,-61.125C18.547,-61.102 18.68,-61.063 18.797,-61C18.797,-60.938 18.781,-60.875 18.75,-60.813C18.727,-60.758 18.719,-60.734 18.719,-60.734C18.895,-60.492 18.922,-60.281 18.797,-60.094C18.68,-59.914 18.625,-59.738 18.625,-59.563C18.625,-59.02 18.656,-58.629 18.719,-58.391C18.832,-58.148 18.859,-57.895 18.797,-57.625C18.742,-57.352 18.836,-57.129 19.078,-56.953C19.078,-56.773 19.047,-56.656 18.984,-56.594C18.984,-56.531 18.969,-56.438 18.938,-56.313C18.906,-56.195 18.922,-56.109 18.984,-56.047C19.098,-55.742 19.109,-55.441 19.016,-55.141C18.93,-54.848 18.832,-54.613 18.719,-54.438C18.656,-54.313 18.68,-54.188 18.797,-54.063C18.922,-53.945 18.863,-53.859 18.625,-53.797C18.738,-53.555 18.691,-53.348 18.484,-53.172C18.273,-52.992 18.203,-52.754 18.266,-52.453C18.266,-52.211 18.234,-51.973 18.172,-51.734C18.109,-51.492 18.078,-51.254 18.078,-51.016L18.078,-50.75C17.785,-50.563 17.68,-50.391 17.766,-50.234C17.859,-50.086 17.992,-49.957 18.172,-49.844C17.867,-49.602 17.672,-49.348 17.578,-49.078C17.492,-48.805 17.422,-48.492 17.359,-48.141C17.359,-47.891 17.328,-47.629 17.266,-47.359C17.211,-47.098 17.125,-46.816 17,-46.516C16.945,-46.273 16.891,-46.051 16.828,-45.844C16.766,-45.633 16.734,-45.379 16.734,-45.078C16.672,-44.891 16.703,-44.586 16.828,-44.172C16.766,-44.055 16.688,-43.938 16.594,-43.813C16.508,-43.695 16.438,-43.578 16.375,-43.453C16.313,-43.273 16.281,-43.094 16.281,-42.906C16.281,-42.727 16.25,-42.52 16.188,-42.281C16.188,-42.281 16.172,-42.266 16.141,-42.234C16.117,-42.203 16.109,-42.16 16.109,-42.109C16.223,-41.867 16.234,-41.641 16.141,-41.422C16.055,-41.211 15.984,-40.988 15.922,-40.75C15.859,-40.508 15.813,-40.27 15.781,-40.031C15.758,-39.789 15.719,-39.551 15.656,-39.313L15.656,-38.641C15.656,-38.43 15.625,-38.207 15.563,-37.969C15.563,-37.664 15.473,-37.426 15.297,-37.25C15.117,-37.008 15.086,-36.77 15.203,-36.531C15.328,-36.102 15.297,-35.742 15.109,-35.453C14.992,-35.328 14.938,-35.113 14.938,-34.813C14.938,-34.395 14.754,-34.129 14.391,-34.016C14.516,-33.953 14.617,-33.891 14.703,-33.828C14.797,-33.766 14.875,-33.703 14.938,-33.641C14.633,-33.461 14.555,-33.223 14.703,-32.922C14.859,-32.629 14.727,-32.422 14.313,-32.297C14.551,-31.941 14.695,-31.672 14.75,-31.484C14.395,-31.242 14.203,-30.973 14.172,-30.672C14.141,-30.379 14.125,-30.113 14.125,-29.875L14.125,-29.016C14.125,-28.867 14.035,-28.613 13.859,-28.25C14.211,-27.832 14.238,-27.41 13.938,-26.984C13.938,-26.93 13.922,-26.906 13.891,-26.906C13.867,-26.906 13.859,-26.875 13.859,-26.813C13.973,-26.57 13.984,-26.359 13.891,-26.172C13.805,-25.992 13.734,-25.785 13.672,-25.547C13.672,-25.191 13.613,-24.773 13.5,-24.297C13.5,-24.109 13.508,-23.91 13.531,-23.703C13.563,-23.492 13.609,-23.332 13.672,-23.219C13.91,-22.852 13.852,-22.551 13.5,-22.313C13.5,-21.945 13.484,-21.629 13.453,-21.359C13.422,-21.098 13.406,-20.816 13.406,-20.516L13.406,-19.516C13.344,-19.273 13.313,-19.035 13.313,-18.797L13.313,-18C13.313,-17.813 13.328,-17.629 13.359,-17.453C13.391,-17.273 13.438,-17.098 13.5,-16.922C13.5,-16.672 13.539,-16.457 13.625,-16.281C13.719,-16.102 13.703,-15.863 13.578,-15.563C13.523,-15.383 13.555,-15.023 13.672,-14.484C13.672,-14.117 13.883,-13.938 14.313,-13.938C14.488,-14 14.68,-14 14.891,-13.938C15.098,-13.883 15.266,-13.859 15.391,-13.859C15.566,-14.035 15.711,-14.195 15.828,-14.344C15.953,-14.5 16.07,-14.609 16.188,-14.672C16.426,-14.785 16.516,-14.883 16.453,-14.969C16.398,-15.063 16.375,-15.141 16.375,-15.203L17,-15.203C17.125,-15.68 17.188,-16.008 17.188,-16.188C17.426,-16.313 17.617,-16.414 17.766,-16.5C17.922,-16.594 18.055,-16.672 18.172,-16.734C18.348,-16.859 18.508,-17.008 18.656,-17.188C18.813,-17.363 18.977,-17.484 19.156,-17.547C19.219,-17.609 19.281,-17.625 19.344,-17.594C19.406,-17.563 19.438,-17.547 19.438,-17.547C19.551,-17.723 19.664,-17.898 19.781,-18.078C19.906,-18.266 20.031,-18.383 20.156,-18.438C20.508,-18.563 20.789,-18.727 21,-18.938C21.219,-19.145 21.445,-19.367 21.688,-19.609C22.406,-20.391 23.242,-21.051 24.203,-21.594C24.266,-21.289 24.188,-21.051 23.969,-20.875C23.758,-20.695 23.598,-20.516 23.484,-20.328C23.359,-20.211 23.234,-20.094 23.109,-19.969C22.992,-19.852 22.879,-19.703 22.766,-19.516C22.703,-19.398 22.641,-19.297 22.578,-19.203C22.516,-19.117 22.457,-19.016 22.406,-18.891C22.344,-18.828 22.313,-18.734 22.313,-18.609C22.313,-18.492 22.281,-18.379 22.219,-18.266C22.582,-18.203 22.82,-18.203 22.938,-18.266C23.063,-18.328 23.484,-18.656 24.203,-19.25C24.316,-19.008 24.375,-18.859 24.375,-18.797C24.563,-18.617 24.563,-18.531 24.375,-18.531C24.195,-18.227 24.348,-18.02 24.828,-17.906C24.711,-18.258 24.758,-18.523 24.969,-18.703C25.176,-18.891 25.398,-19.07 25.641,-19.25C25.766,-19.375 25.93,-19.445 26.141,-19.469C26.348,-19.5 26.57,-19.547 26.813,-19.609C27.051,-19.672 27.258,-19.742 27.438,-19.828C27.613,-19.922 27.766,-20.117 27.891,-20.422C28.066,-20.723 28.258,-21.02 28.469,-21.313C28.688,-21.613 29.004,-21.859 29.422,-22.047C29.66,-22.16 29.898,-22.289 30.141,-22.438C30.379,-22.594 30.617,-22.703 30.859,-22.766C30.984,-22.828 31.133,-22.859 31.313,-22.859L31.766,-22.859C31.766,-22.859 31.75,-22.828 31.719,-22.766C31.688,-22.703 31.703,-22.641 31.766,-22.578C31.766,-22.516 31.789,-22.469 31.844,-22.438C31.906,-22.414 31.938,-22.406 31.938,-22.406C31.758,-22.102 31.742,-21.848 31.891,-21.641C32.047,-21.43 32.242,-21.266 32.484,-21.141C32.66,-21.266 32.836,-21.367 33.016,-21.453C33.191,-21.547 33.398,-21.625 33.641,-21.688C33.586,-20.844 33.516,-20.332 33.422,-20.156C33.328,-19.977 33.102,-19.859 32.75,-19.797C32.813,-19.734 32.844,-19.672 32.844,-19.609C32.844,-19.547 32.867,-19.516 32.922,-19.516C33.16,-19.516 33.297,-19.41 33.328,-19.203C33.359,-18.992 33.492,-18.859 33.734,-18.797C33.734,-18.797 33.719,-18.707 33.688,-18.531C33.656,-18.352 33.766,-18.266 34.016,-18.266C33.891,-18.141 33.766,-17.93 33.641,-17.641C33.766,-17.516 33.891,-17.453 34.016,-17.453C33.891,-16.973 33.797,-16.645 33.734,-16.469C33.734,-16.281 33.676,-16.129 33.563,-16.016C33.32,-15.773 33.094,-15.551 32.875,-15.344C32.664,-15.133 32.441,-14.91 32.203,-14.672C32.148,-14.609 32.125,-14.488 32.125,-14.313C32.063,-14.25 32.031,-14.188 32.031,-14.125C32.031,-14.063 32,-14 31.938,-13.938C31.875,-13.883 31.781,-13.813 31.656,-13.719C31.539,-13.625 31.457,-13.52 31.406,-13.406C31.344,-13.344 31.328,-13.25 31.359,-13.125C31.391,-13.008 31.406,-12.895 31.406,-12.781C31.102,-12.656 30.816,-12.516 30.547,-12.359C30.273,-12.211 30.172,-11.93 30.234,-11.516C30.234,-11.453 30.172,-11.363 30.047,-11.25C29.805,-11.008 29.566,-10.77 29.328,-10.531C29.086,-10.289 28.816,-10.051 28.516,-9.813C28.336,-9.625 28.219,-9.473 28.156,-9.359C28.094,-9.422 28.031,-9.453 27.969,-9.453C27.914,-9.453 27.828,-9.477 27.703,-9.531C27.703,-9.477 27.676,-9.422 27.625,-9.359C27.738,-9.297 27.859,-9.207 27.984,-9.094C27.68,-8.664 27.316,-8.285 26.891,-7.953C26.473,-7.629 26.145,-7.227 25.906,-6.75C25.852,-6.508 25.703,-6.328 25.453,-6.203C25.211,-6.086 25.035,-5.941 24.922,-5.766C24.742,-5.578 24.578,-5.379 24.422,-5.172C24.273,-4.961 24.113,-4.797 23.938,-4.672C23.875,-4.555 23.75,-4.469 23.563,-4.406C23.383,-4.344 23.238,-4.254 23.125,-4.141C22.945,-4.078 22.766,-3.984 22.578,-3.859C22.398,-3.742 22.25,-3.629 22.125,-3.516C22.07,-3.516 22.047,-3.395 22.047,-3.156C21.68,-3.27 21.41,-3.191 21.234,-2.922C21.055,-2.648 20.848,-2.395 20.609,-2.156C20.785,-1.977 20.93,-1.891 21.047,-1.891C21.172,-1.891 21.504,-1.977 22.047,-2.156C21.984,-2.094 21.922,-2.047 21.859,-2.016C21.797,-1.992 21.738,-1.953 21.688,-1.891C21.445,-1.766 21.266,-1.703 21.141,-1.703C20.898,-1.586 20.691,-1.395 20.516,-1.125C20.336,-0.852 20.066,-0.75 19.703,-0.813C19.578,-0.57 19.426,-0.438 19.25,-0.406C19.07,-0.375 18.895,-0.359 18.719,-0.359C18.531,-0.297 18.348,-0.203 18.172,-0.078C17.992,0.035 17.816,0.094 17.641,0.094C17.578,0.094 17.516,0.109 17.453,0.141C17.391,0.172 17.332,0.188 17.281,0.188C17.094,0.063 16.953,0.031 16.859,0.094C16.773,0.156 16.672,0.242 16.547,0.359C16.254,0.66 15.773,0.813 15.109,0.813C14.867,0.75 14.613,0.75 14.344,0.813C14.07,0.875 13.789,0.961 13.5,1.078C13.5,1.078 13.406,1.227 13.219,1.531C13.039,1.531 12.863,1.547 12.688,1.578C12.508,1.609 12.359,1.77 12.234,2.063C12.117,2.188 11.848,2.188 11.422,2.063C11.004,1.883 10.598,1.645 10.203,1.344C9.816,1.051 9.445,0.754 9.094,0.453C8.852,0.211 8.641,0.063 8.453,0C8.098,-0.176 7.723,-0.352 7.328,-0.531C6.941,-0.719 6.598,-0.961 6.297,-1.266C6.234,-1.316 6.203,-1.344 6.203,-1.344C6.203,-1.344 6.176,-1.375 6.125,-1.438C5.938,-1.977 5.633,-2.039 5.219,-1.625C5.156,-1.738 5.094,-1.852 5.031,-1.969C4.977,-2.094 4.891,-2.188 4.766,-2.25C4.703,-2.363 4.598,-2.492 4.453,-2.641C4.305,-2.797 4.203,-2.938 4.141,-3.063C3.961,-3.539 3.781,-4.02 3.594,-4.5C3.414,-4.977 3.27,-5.426 3.156,-5.844C3.094,-5.906 3.063,-6 3.063,-6.125C3.176,-6.781 3.113,-7.316 2.875,-7.734C2.758,-7.859 2.703,-8.023 2.703,-8.234L2.703,-8.906C2.641,-9.207 2.578,-9.535 2.516,-9.891C2.453,-10.254 2.395,-10.586 2.344,-10.891C2.344,-11.191 2.328,-11.488 2.297,-11.781C2.266,-12.082 2.25,-12.352 2.25,-12.594C2.25,-12.719 2.273,-12.836 2.328,-12.953C2.391,-13.078 2.453,-13.195 2.516,-13.313C2.453,-13.375 2.391,-13.422 2.328,-13.453C2.273,-13.484 2.25,-13.5 2.25,-13.5C2.188,-13.914 2.156,-14.273 2.156,-14.578L2.156,-15.563C2.156,-15.563 2.273,-15.625 2.516,-15.75C2.453,-15.801 2.375,-15.844 2.281,-15.875C2.195,-15.906 2.156,-15.922 2.156,-15.922C2.156,-16.223 2.094,-16.492 1.969,-16.734C1.852,-16.973 1.883,-17.211 2.063,-17.453C2.188,-17.691 2.234,-17.93 2.203,-18.172C2.172,-18.41 2.125,-18.648 2.063,-18.891C2.063,-18.953 1.973,-19.07 1.797,-19.25L1.797,-19.922C1.797,-20.141 1.828,-20.336 1.891,-20.516C1.953,-20.816 2.008,-21.113 2.063,-21.406C2.125,-21.707 2.188,-22.008 2.25,-22.313C2.313,-22.488 2.344,-22.758 2.344,-23.125C2.281,-23.426 2.25,-23.68 2.25,-23.891C2.25,-24.098 2.336,-24.32 2.516,-24.563C2.273,-24.863 2.195,-25.148 2.281,-25.422C2.375,-25.691 2.453,-25.945 2.516,-26.188C2.516,-26.363 2.531,-26.523 2.563,-26.672C2.594,-26.828 2.609,-26.961 2.609,-27.078C2.609,-27.254 2.594,-27.414 2.563,-27.563C2.531,-27.719 2.547,-27.883 2.609,-28.063C2.723,-28.426 2.723,-28.789 2.609,-29.156C2.547,-29.395 2.57,-29.617 2.688,-29.828C2.813,-30.035 2.785,-30.258 2.609,-30.5L2.703,-30.594C2.816,-30.832 2.875,-30.977 2.875,-31.031C2.875,-31.094 2.723,-31.156 2.422,-31.219C2.422,-31.344 2.508,-31.43 2.688,-31.484C2.875,-31.547 2.906,-31.695 2.781,-31.938C2.727,-32.063 2.789,-32.18 2.969,-32.297C3.145,-32.422 3.113,-32.539 2.875,-32.656C2.875,-32.656 2.906,-32.711 2.969,-32.828C3.031,-32.953 3.063,-33.047 3.063,-33.109C2.938,-33.348 2.93,-33.586 3.047,-33.828C3.172,-34.066 3.176,-34.305 3.063,-34.547C3,-34.723 3.008,-34.93 3.094,-35.172C3.188,-35.41 3.266,-35.648 3.328,-35.891C3.328,-35.891 3.207,-36.008 2.969,-36.25C3.445,-36.676 3.656,-37.129 3.594,-37.609C3.539,-37.961 3.617,-38.305 3.828,-38.641C4.035,-38.973 4.02,-39.316 3.781,-39.672C4.02,-40.098 4.141,-40.504 4.141,-40.891C4.141,-41.273 4.195,-41.68 4.313,-42.109C4.438,-42.285 4.469,-42.406 4.406,-42.469C4.344,-42.531 4.285,-42.586 4.234,-42.641C4.348,-42.879 4.477,-43.086 4.625,-43.266C4.781,-43.453 4.859,-43.664 4.859,-43.906C4.797,-44.383 4.867,-44.863 5.078,-45.344C5.285,-45.82 5.332,-46.301 5.219,-46.781C5.281,-46.844 5.352,-46.898 5.438,-46.953C5.531,-47.016 5.609,-47.078 5.672,-47.141C5.547,-47.379 5.586,-47.633 5.797,-47.906C6.016,-48.176 5.91,-48.43 5.484,-48.672C5.848,-48.734 5.969,-48.852 5.844,-49.031C5.727,-49.207 5.703,-49.328 5.766,-49.391C5.941,-49.516 6,-49.633 5.938,-49.75C5.875,-49.875 5.785,-49.992 5.672,-50.109C6.023,-50.047 6.234,-50.133 6.297,-50.375C6.359,-50.625 6.445,-50.805 6.563,-50.922C6.508,-51.047 6.453,-51.109 6.391,-51.109C6.328,-51.109 6.266,-51.133 6.203,-51.188C6.328,-51.375 6.43,-51.555 6.516,-51.734C6.609,-51.91 6.566,-52.117 6.391,-52.359C6.504,-52.484 6.617,-52.555 6.734,-52.578C6.859,-52.609 6.863,-52.719 6.75,-52.906L6.75,-53.078C7.164,-53.254 7.254,-53.523 7.016,-53.891C7.016,-54.016 7.055,-54.133 7.141,-54.25C7.234,-54.375 7.281,-54.461 7.281,-54.516C7.344,-54.992 7.477,-55.441 7.688,-55.859C7.895,-56.285 8.031,-56.738 8.094,-57.219C8.219,-57.695 8.441,-58.086 8.766,-58.391C9.098,-58.691 9.473,-58.961 9.891,-59.203C10.191,-59.316 10.398,-59.508 10.516,-59.781C10.641,-60.051 10.734,-60.305 10.797,-60.547C10.91,-60.785 10.984,-60.992 11.016,-61.172C11.047,-61.359 11.094,-61.539 11.156,-61.719C11.281,-61.957 11.328,-62.195 11.297,-62.438C11.266,-62.676 11.305,-62.914 11.422,-63.156C11.484,-63.219 11.531,-63.266 11.563,-63.297C11.594,-63.328 11.641,-63.367 11.703,-63.422C11.754,-63.422 11.813,-63.395 11.875,-63.344C11.813,-63.281 11.75,-63.234 11.688,-63.203C11.633,-63.172 11.578,-63.098 11.516,-62.984C11.641,-62.922 11.742,-62.875 11.828,-62.844C11.922,-62.813 12,-62.766 12.063,-62.703C12,-62.523 11.953,-62.332 11.922,-62.125C11.891,-61.914 11.844,-61.691 11.781,-61.453C11.727,-61.086 11.879,-60.906 12.234,-60.906L12.422,-60.906C12.598,-60.727 12.773,-60.656 12.953,-60.688C13.129,-60.719 13.219,-60.879 13.219,-61.172C13.219,-61.66 13.52,-61.906 14.125,-61.906L14.125,-62.438C14.125,-62.5 14.141,-62.531 14.172,-62.531L14.672,-62.531C14.785,-62.77 14.945,-62.906 15.156,-62.938C15.363,-62.969 15.563,-63.008 15.75,-63.063C16.039,-63.301 16.281,-63.211 16.469,-62.797C16.52,-62.617 16.609,-62.453 16.734,-62.297C16.859,-62.148 16.945,-61.988 17,-61.813ZM14.391,-12.953C14.691,-13.191 14.723,-13.43 14.484,-13.672C14.422,-13.734 14.328,-13.75 14.203,-13.719C14.086,-13.688 13.973,-13.703 13.859,-13.766C13.973,-13.586 14.078,-13.438 14.172,-13.313C14.266,-13.195 14.336,-13.078 14.391,-12.953Z" style="fill:rgb(136,136,136);fill-rule:nonzero;"/>
            </g>
        </g>
    </g>
    <g transform="matrix(1.33333,0,0,1.33333,291.618,140.463)">
        <g>
            <g>
                <path d="M2.344,-49.484C2.281,-49.598 2.16,-49.75 1.984,-49.938C1.984,-50.113 1.992,-50.273 2.016,-50.422C2.047,-50.578 2.063,-50.711 2.063,-50.828L2.063,-52.359C2.063,-52.535 2.035,-52.656 1.984,-52.719L1.984,-53.172C2.273,-53.473 2.375,-53.77 2.281,-54.063C2.195,-54.363 2.156,-54.664 2.156,-54.969C2.039,-55.813 2.039,-56.68 2.156,-57.578C2.332,-57.461 2.422,-57.359 2.422,-57.266C2.422,-57.172 2.332,-56.977 2.156,-56.688C2.395,-56.5 2.633,-56.164 2.875,-55.688C3,-55.988 3.164,-56.211 3.375,-56.359C3.582,-56.516 3.719,-56.742 3.781,-57.047C3.844,-57.461 3.898,-57.742 3.953,-57.891C4.016,-58.047 3.988,-58.391 3.875,-58.922C4.164,-59.223 4.238,-59.551 4.094,-59.906C3.945,-60.27 4.02,-60.57 4.313,-60.813C4.438,-60.938 4.516,-61.117 4.547,-61.359C4.578,-61.598 4.617,-61.805 4.672,-61.984C4.672,-62.109 4.703,-62.195 4.766,-62.25C4.828,-62.313 4.891,-62.375 4.953,-62.438C5.004,-62.375 5.078,-62.328 5.172,-62.297C5.266,-62.273 5.336,-62.203 5.391,-62.078C5.754,-61.422 6.359,-61.211 7.203,-61.453C7.203,-61.566 7.188,-61.711 7.156,-61.891C7.125,-62.078 7.109,-62.227 7.109,-62.344C7.348,-62.344 7.555,-62.316 7.734,-62.266C7.672,-62.504 7.551,-62.742 7.375,-62.984C7.613,-63.035 7.82,-63.109 8,-63.203C8.188,-63.297 8.398,-63.367 8.641,-63.422C8.816,-62.828 9.145,-62.469 9.625,-62.344C10.102,-62.227 10.551,-62.082 10.969,-61.906C10.789,-61.719 10.613,-61.566 10.438,-61.453C10.551,-61.266 10.703,-60.992 10.891,-60.641C11.066,-60.816 11.227,-60.961 11.375,-61.078C11.531,-61.203 11.664,-61.352 11.781,-61.531C11.906,-61.238 12.039,-60.926 12.188,-60.594C12.344,-60.258 12.359,-59.914 12.234,-59.563C12.473,-59.32 12.68,-59.109 12.859,-58.922C13.047,-58.742 13.164,-58.504 13.219,-58.203C13.344,-57.672 13.422,-57.133 13.453,-56.594C13.484,-56.051 13.555,-55.508 13.672,-54.969C13.797,-54.613 13.617,-54.344 13.141,-54.156C13.492,-53.801 13.758,-53.563 13.938,-53.438C13.938,-53.375 13.91,-53.344 13.859,-53.344C13.617,-53.102 13.539,-52.863 13.625,-52.625C13.719,-52.383 13.734,-52.145 13.672,-51.906C13.609,-51.727 13.547,-51.551 13.484,-51.375C13.43,-51.195 13.438,-50.988 13.5,-50.75C13.613,-50.5 13.641,-50.238 13.578,-49.969C13.523,-49.707 13.5,-49.457 13.5,-49.219C13.5,-48.914 13.469,-48.766 13.406,-48.766C13.707,-48.523 13.797,-48.164 13.672,-47.688C13.609,-47.5 13.641,-47.164 13.766,-46.688C13.879,-46.445 13.891,-46.238 13.797,-46.063C13.711,-45.883 13.672,-45.707 13.672,-45.531C13.734,-45.289 13.766,-45.02 13.766,-44.719C13.766,-44.414 13.797,-44.145 13.859,-43.906L13.938,-43.906C13.883,-43.727 13.813,-43.563 13.719,-43.406C13.625,-43.258 13.551,-43.125 13.5,-43C13.551,-42.82 13.609,-42.641 13.672,-42.453C13.734,-42.273 13.766,-42.098 13.766,-41.922C13.879,-41.68 13.863,-41.516 13.719,-41.422C13.57,-41.336 13.406,-41.234 13.219,-41.109C13.457,-41.109 13.695,-41.051 13.938,-40.938C13.883,-40.758 13.828,-40.578 13.766,-40.391C13.703,-40.211 13.672,-40.035 13.672,-39.859C13.672,-39.555 13.758,-39.316 13.938,-39.141C14.301,-38.711 14.301,-38.141 13.938,-37.422C13.938,-37.367 13.906,-37.281 13.844,-37.156C13.789,-37.039 13.797,-36.922 13.859,-36.797C13.859,-36.492 13.867,-36.16 13.891,-35.797C13.922,-35.441 13.969,-35.113 14.031,-34.813C14.031,-34.633 14.063,-34.457 14.125,-34.281C14.188,-34.102 14.25,-33.922 14.313,-33.734L14.313,-33.109C14.313,-32.93 14.398,-32.781 14.578,-32.656C14.641,-32.656 14.672,-32.625 14.672,-32.563C14.547,-32.207 14.555,-31.832 14.703,-31.438C14.859,-31.051 14.754,-30.676 14.391,-30.313C14.516,-30.07 14.617,-29.848 14.703,-29.641C14.797,-29.43 14.875,-29.207 14.938,-28.969C14.633,-28.551 14.664,-28.008 15.031,-27.344C15.207,-27.102 15.297,-26.836 15.297,-26.547C15.297,-26.004 15.535,-25.645 16.016,-25.469C16.43,-25.582 16.656,-25.863 16.688,-26.313C16.719,-26.758 16.941,-27.047 17.359,-27.172C17.242,-27.473 17.203,-27.785 17.234,-28.109C17.266,-28.441 17.398,-28.727 17.641,-28.969C17.816,-29.145 17.906,-29.32 17.906,-29.5C17.906,-29.688 17.938,-29.867 18,-30.047C18.113,-30.461 18.234,-30.973 18.359,-31.578C18.41,-31.754 18.438,-31.961 18.438,-32.203C18.438,-32.441 18.555,-32.625 18.797,-32.75C18.797,-32.863 18.738,-32.984 18.625,-33.109C18.801,-33.285 18.922,-33.438 18.984,-33.563C19.047,-33.676 19.078,-33.781 19.078,-33.875C19.078,-33.969 19.102,-34.039 19.156,-34.094L19.156,-34.547C19.156,-34.848 19.188,-35 19.25,-35C19.488,-35.113 19.609,-35.273 19.609,-35.484L19.609,-36.531C19.734,-36.832 19.867,-37.113 20.016,-37.375C20.172,-37.645 20.273,-37.898 20.328,-38.141C20.453,-38.504 20.539,-38.879 20.594,-39.266C20.656,-39.66 20.719,-40.066 20.781,-40.484C20.906,-40.848 21.023,-41.223 21.141,-41.609C21.266,-41.992 21.352,-42.367 21.406,-42.734C21.469,-42.859 21.5,-43.039 21.5,-43.281C21.5,-43.332 21.484,-43.391 21.453,-43.453C21.422,-43.516 21.438,-43.578 21.5,-43.641C21.676,-43.879 21.766,-44.145 21.766,-44.438C21.766,-44.738 21.797,-45.008 21.859,-45.25C21.859,-45.313 21.875,-45.383 21.906,-45.469C21.938,-45.563 21.953,-45.641 21.953,-45.703C22.066,-46.117 22.098,-46.391 22.047,-46.516C21.984,-46.629 21.969,-46.742 22,-46.859C22.031,-46.984 22.07,-47.078 22.125,-47.141C22.188,-47.316 22.25,-47.477 22.313,-47.625C22.375,-47.781 22.375,-47.953 22.313,-48.141C22.313,-48.254 22.352,-48.352 22.438,-48.438C22.531,-48.531 22.609,-48.609 22.672,-48.672C22.609,-48.734 22.531,-48.789 22.438,-48.844C22.352,-48.906 22.25,-48.969 22.125,-49.031C22.125,-49.207 22.188,-49.414 22.313,-49.656C22.426,-49.895 22.484,-50.316 22.484,-50.922C22.484,-51.523 22.426,-51.883 22.313,-52C22.488,-52.477 22.578,-52.867 22.578,-53.172C22.641,-53.535 22.688,-53.895 22.719,-54.25C22.75,-54.613 22.766,-54.973 22.766,-55.328C22.766,-55.504 22.734,-55.68 22.672,-55.859C22.609,-56.047 22.578,-56.227 22.578,-56.406C22.641,-56.707 22.688,-57.008 22.719,-57.313C22.75,-57.613 22.734,-57.91 22.672,-58.203C22.547,-58.504 22.664,-58.836 23.031,-59.203C23.395,-59.742 23.363,-60.191 22.938,-60.547C23.063,-60.723 23.18,-60.914 23.297,-61.125C23.422,-61.344 23.422,-61.57 23.297,-61.813C23.242,-61.875 23.258,-61.945 23.344,-62.031C23.438,-62.125 23.484,-62.203 23.484,-62.266C23.785,-63.098 24.176,-63.816 24.656,-64.422C24.77,-64.535 24.828,-64.625 24.828,-64.688C24.766,-64.988 24.883,-65.141 25.188,-65.141C25.551,-65.141 25.82,-65.242 26,-65.453C26.176,-65.66 26.328,-65.883 26.453,-66.125C26.516,-66.188 26.531,-66.258 26.5,-66.344C26.469,-66.438 26.453,-66.516 26.453,-66.578L26.625,-66.578C26.625,-66.398 26.656,-66.281 26.719,-66.219C26.719,-65.914 26.898,-65.707 27.266,-65.594C27.555,-65.531 27.805,-65.523 28.016,-65.578C28.234,-65.641 28.461,-65.672 28.703,-65.672C29.359,-65.555 29.719,-65.227 29.781,-64.688L29.953,-64.688C30.016,-64.813 30.086,-64.93 30.172,-65.047C30.266,-65.172 30.344,-65.289 30.406,-65.406C30.531,-65.289 30.648,-65.141 30.766,-64.953C30.891,-64.773 31.102,-64.75 31.406,-64.875C31.406,-64.875 31.445,-64.781 31.531,-64.594C31.625,-64.414 31.703,-64.266 31.766,-64.141L31.766,-63.422C32.535,-63.367 32.953,-62.922 33.016,-62.078C33.492,-61.961 33.734,-61.691 33.734,-61.266C33.734,-61.086 33.828,-60.938 34.016,-60.813C34.191,-60.695 34.352,-60.563 34.5,-60.406C34.656,-60.258 34.734,-60.035 34.734,-59.734C34.734,-59.555 34.863,-59.453 35.125,-59.422C35.395,-59.391 35.648,-59.406 35.891,-59.469C35.891,-59.469 35.953,-59.531 36.078,-59.656C36.078,-59.414 36.102,-59.172 36.156,-58.922C36.219,-58.68 36.223,-58.473 36.172,-58.297C36.109,-57.879 36.117,-57.488 36.203,-57.125C36.297,-56.77 36.254,-56.41 36.078,-56.047C36.016,-55.984 35.984,-55.863 35.984,-55.688C36.16,-55.145 36.008,-54.664 35.531,-54.25C36.195,-54.07 36.379,-53.711 36.078,-53.172C35.898,-52.805 35.813,-52.414 35.813,-52C35.813,-51.883 35.852,-51.75 35.938,-51.594C36.031,-51.445 36.047,-51.285 35.984,-51.109C35.922,-50.984 35.891,-50.859 35.891,-50.734C35.891,-50.617 35.863,-50.473 35.813,-50.297C35.926,-49.93 35.938,-49.551 35.844,-49.156C35.758,-48.77 35.75,-48.336 35.813,-47.859C35.75,-47.859 35.688,-47.844 35.625,-47.813C35.563,-47.781 35.531,-47.766 35.531,-47.766C35.656,-47.172 35.773,-46.691 35.891,-46.328L35.891,-46.156C35.648,-46.031 35.547,-45.863 35.578,-45.656C35.609,-45.445 35.625,-45.223 35.625,-44.984C35.563,-44.805 35.383,-44.656 35.094,-44.531C35.207,-44.469 35.305,-44.406 35.391,-44.344C35.484,-44.289 35.594,-44.234 35.719,-44.172C35.539,-43.93 35.359,-43.66 35.172,-43.359C34.992,-43.066 34.938,-42.77 35,-42.469L35,-41.781C35,-41.57 34.91,-41.379 34.734,-41.203C34.609,-41.086 34.609,-40.969 34.734,-40.844C34.973,-40.426 34.82,-40.129 34.281,-39.953C34.395,-39.891 34.484,-39.844 34.547,-39.813C34.609,-39.781 34.672,-39.734 34.734,-39.672C34.254,-39.492 34.102,-39.195 34.281,-38.781C34.395,-38.414 34.363,-38.082 34.188,-37.781C34.125,-37.727 34.109,-37.625 34.141,-37.469C34.172,-37.32 34.156,-37.188 34.094,-37.063C34.039,-36.707 33.969,-36.348 33.875,-35.984C33.781,-35.629 33.676,-35.301 33.563,-35C33.5,-34.758 33.391,-34.547 33.234,-34.359C33.086,-34.18 33.047,-33.973 33.109,-33.734C33.223,-33.43 33.219,-33.145 33.094,-32.875C32.977,-32.613 32.863,-32.332 32.75,-32.031C32.75,-31.969 32.766,-31.848 32.797,-31.672C32.828,-31.492 32.844,-31.344 32.844,-31.219C32.781,-31.156 32.703,-31.063 32.609,-30.938C32.523,-30.82 32.539,-30.676 32.656,-30.5C32.719,-30.438 32.66,-30.254 32.484,-29.953C32.422,-29.773 32.313,-29.598 32.156,-29.422C32.008,-29.242 32.055,-29.004 32.297,-28.703C32.18,-28.641 32.063,-28.609 31.938,-28.609C31.82,-28.609 31.703,-28.578 31.578,-28.516C31.703,-28.398 31.82,-28.313 31.938,-28.25C31.633,-27.832 31.547,-27.473 31.672,-27.172C31.785,-26.992 31.797,-26.785 31.703,-26.547C31.617,-26.305 31.578,-26.066 31.578,-25.828C31.578,-25.461 31.488,-25.145 31.313,-24.875C31.133,-24.602 31.016,-24.316 30.953,-24.016C30.953,-23.961 30.891,-23.875 30.766,-23.75C30.223,-23.508 30.133,-23.117 30.5,-22.578C30.438,-22.516 30.359,-22.453 30.266,-22.391C30.18,-22.336 30.078,-22.281 29.953,-22.219C30.078,-21.977 30.141,-21.828 30.141,-21.766C30.078,-21.473 30.016,-21.16 29.953,-20.828C29.898,-20.492 29.781,-20.207 29.594,-19.969C29.414,-19.727 29.328,-19.488 29.328,-19.25C29.328,-19.008 29.27,-18.801 29.156,-18.625C28.914,-18.207 28.797,-17.711 28.797,-17.141C28.797,-16.566 28.582,-16.07 28.156,-15.656C28.094,-15.531 27.941,-15.348 27.703,-15.109C27.828,-14.867 27.828,-14.629 27.703,-14.391C27.586,-14.148 27.469,-13.91 27.344,-13.672C27.227,-13.43 27.125,-13.207 27.031,-13C26.945,-12.789 26.961,-12.535 27.078,-12.234C26.598,-11.992 26.359,-11.664 26.359,-11.25C26.359,-11.188 26.328,-11.125 26.266,-11.063C26.211,-11 26.188,-10.91 26.188,-10.797C25.883,-10.254 25.645,-9.742 25.469,-9.266C25.406,-9.203 25.375,-9.113 25.375,-9C25.133,-8.695 24.906,-8.379 24.688,-8.047C24.477,-7.723 24.285,-7.41 24.109,-7.109C24.047,-7.047 24,-6.984 23.969,-6.922C23.945,-6.867 23.906,-6.813 23.844,-6.75C23.781,-6.508 23.672,-6.297 23.516,-6.109C23.367,-5.93 23.238,-5.785 23.125,-5.672C22.945,-5.43 22.797,-5.191 22.672,-4.953C22.547,-4.711 22.395,-4.441 22.219,-4.141C22.281,-4.141 22.297,-4.141 22.266,-4.141L22.219,-4.141C22.039,-4.078 21.859,-3.984 21.672,-3.859C21.492,-3.742 21.316,-3.656 21.141,-3.594C20.723,-3.539 20.516,-3.242 20.516,-2.703C20.516,-2.461 20.426,-2.16 20.25,-1.797C20.188,-1.492 19.973,-1.344 19.609,-1.344C19.367,-1.406 19.039,-1.438 18.625,-1.438L18.078,-1.438C18.078,-1.32 18.063,-1.219 18.031,-1.125C18.008,-1.031 18,-0.926 18,-0.813C17.875,-0.75 17.75,-0.688 17.625,-0.625C17.508,-0.57 17.395,-0.516 17.281,-0.453C17.039,-0.391 16.797,-0.27 16.547,-0.094L16.547,1.344C16.367,0.75 15.984,0.602 15.391,0.906C14.961,0.176 14.477,0.055 13.938,0.547C13.582,0.785 13.285,0.844 13.047,0.719C12.984,0.602 12.891,0.547 12.766,0.547C12.648,0.547 12.535,0.516 12.422,0.453C12.055,0.328 11.785,0.207 11.609,0.094C11.484,0.156 11.344,0.227 11.188,0.313C11.039,0.406 10.848,0.332 10.609,0.094C10.609,0.094 10.563,0.109 10.469,0.141C10.383,0.172 10.313,0.188 10.25,0.188C10.008,-0.113 9.77,-0.414 9.531,-0.719C9.289,-1.02 9.082,-1.289 8.906,-1.531C8.789,-1.77 8.688,-2.008 8.594,-2.25C8.5,-2.488 8.395,-2.727 8.281,-2.969C8.219,-3.094 8.125,-3.195 8,-3.281C7.883,-3.375 7.766,-3.477 7.641,-3.594C7.586,-3.719 7.484,-3.797 7.328,-3.828C7.18,-3.859 7.078,-3.93 7.016,-4.047C6.598,-4.828 6.359,-5.547 6.297,-6.203C6.234,-6.68 5.992,-7.016 5.578,-7.203L5.578,-7.734C5.578,-7.91 5.547,-8.094 5.484,-8.281C5.422,-8.582 5.344,-8.879 5.25,-9.172C5.164,-9.473 5.156,-9.805 5.219,-10.172C5.281,-10.223 5.219,-10.344 5.031,-10.531C4.789,-10.82 4.656,-11.16 4.625,-11.547C4.602,-11.941 4.531,-12.32 4.406,-12.688C4.227,-13.102 4.156,-13.504 4.188,-13.891C4.219,-14.285 4.203,-14.691 4.141,-15.109C4.141,-15.234 4.094,-15.352 4,-15.469C3.914,-15.594 3.813,-15.742 3.688,-15.922C3.688,-15.922 3.805,-16.102 4.047,-16.469C3.867,-16.582 3.766,-16.711 3.734,-16.859C3.703,-17.016 3.656,-17.211 3.594,-17.453C3.539,-17.93 3.469,-18.395 3.375,-18.844C3.281,-19.289 3.176,-19.727 3.063,-20.156C3,-20.332 2.984,-20.508 3.016,-20.688C3.047,-20.875 3.063,-21.055 3.063,-21.234C3,-21.348 2.953,-21.461 2.922,-21.578C2.891,-21.703 2.816,-21.797 2.703,-21.859C2.816,-21.922 2.922,-21.969 3.016,-22C3.109,-22.031 3.18,-22.07 3.234,-22.125C3.18,-22.188 3.125,-22.258 3.063,-22.344C3,-22.438 2.906,-22.516 2.781,-22.578C2.602,-22.879 2.578,-23.148 2.703,-23.391L2.703,-23.703C2.703,-23.859 2.672,-23.961 2.609,-24.016C2.609,-24.141 2.594,-24.227 2.563,-24.281C2.531,-24.344 2.516,-24.406 2.516,-24.469C2.641,-24.945 2.582,-25.367 2.344,-25.734C2.219,-25.848 2.219,-26 2.344,-26.188C2.395,-26.301 2.438,-26.398 2.469,-26.484C2.5,-26.578 2.395,-26.656 2.156,-26.719C2.094,-26.719 2.063,-26.75 2.063,-26.813L2.063,-26.906C2.188,-27.145 2.188,-27.336 2.063,-27.484C1.945,-27.629 1.859,-27.797 1.797,-27.984C2.16,-28.461 2.223,-28.879 1.984,-29.234C1.68,-29.711 1.68,-30.102 1.984,-30.406C2.223,-30.707 2.16,-31.008 1.797,-31.313L1.797,-31.578C1.922,-31.516 2.008,-31.469 2.063,-31.438C2.125,-31.414 2.188,-31.375 2.25,-31.313C2.313,-31.25 2.43,-31.219 2.609,-31.219C2.723,-31.344 2.781,-31.461 2.781,-31.578C2.781,-31.879 2.766,-32.176 2.734,-32.469C2.711,-32.77 2.703,-33.039 2.703,-33.281C2.641,-33.406 2.609,-33.586 2.609,-33.828C2.609,-33.891 2.625,-33.945 2.656,-34C2.688,-34.063 2.703,-34.125 2.703,-34.188C2.461,-34.488 2.352,-34.773 2.375,-35.047C2.406,-35.316 2.453,-35.57 2.516,-35.813C2.578,-36.227 2.594,-36.629 2.563,-37.016C2.531,-37.41 2.547,-37.816 2.609,-38.234C2.723,-38.711 2.66,-39.133 2.422,-39.5C2.367,-39.563 2.344,-39.648 2.344,-39.766L2.344,-40.031C2.457,-40.332 2.469,-40.602 2.375,-40.844C2.289,-41.082 2.25,-41.32 2.25,-41.563C2.25,-41.625 2.16,-41.742 1.984,-41.922C2.273,-42.047 2.391,-42.227 2.328,-42.469C2.273,-42.707 2.25,-42.945 2.25,-43.188C2.313,-43.488 2.328,-43.785 2.297,-44.078C2.266,-44.379 2.25,-44.711 2.25,-45.078C2.25,-45.191 2.305,-45.367 2.422,-45.609C2.129,-45.91 2.039,-46.301 2.156,-46.781C2.281,-47.438 2.281,-48.035 2.156,-48.578C2.039,-48.941 2.102,-49.242 2.344,-49.484ZM28.797,-27.266C28.973,-26.898 29.211,-26.926 29.516,-27.344C29.211,-27.344 28.973,-27.316 28.797,-27.266ZM8.094,-63.063C8.031,-62.945 8,-62.844 8,-62.75C8,-62.664 7.973,-62.563 7.922,-62.438C8.273,-62.5 8.332,-62.707 8.094,-63.063ZM11.969,-57.672C11.727,-57.609 11.488,-57.52 11.25,-57.406C11.488,-57.281 11.633,-57.234 11.688,-57.266C11.75,-57.297 11.844,-57.43 11.969,-57.672ZM25.094,-56.141L25.094,-56.234L24.469,-56.234L24.469,-55.953C24.594,-56.016 24.711,-56.047 24.828,-56.047C24.953,-56.047 25.039,-56.078 25.094,-56.141Z" style="fill:rgb(136,136,136);fill-rule:nonzero;"/>
            </g>
        </g>
    </g>
    <g transform="matrix(1.33333,0,0,1.33333,338.521,140.463)">
        <g>
            <g>
                <path d="M5.391,-64.141C5.453,-64.266 5.5,-64.383 5.531,-64.5C5.563,-64.625 5.609,-64.719 5.672,-64.781C5.785,-64.895 5.906,-64.953 6.031,-64.953C6.332,-65.078 6.523,-65.195 6.609,-65.313C6.703,-65.438 6.688,-65.676 6.563,-66.031C7.582,-66.508 8.645,-66.867 9.75,-67.109C10.863,-67.348 11.992,-67.531 13.141,-67.656L13.141,-68.203C13.797,-68.254 14.422,-68.281 15.016,-68.281C15.617,-68.281 16.223,-68.461 16.828,-68.828C16.766,-68.461 16.805,-68.176 16.953,-67.969C17.109,-67.758 17.035,-67.535 16.734,-67.297C17.453,-67.359 18.141,-67.414 18.797,-67.469C19.461,-67.531 20.094,-67.594 20.688,-67.656C20.75,-67.352 20.988,-67.266 21.406,-67.391C21.531,-67.391 21.664,-67.414 21.813,-67.469C21.969,-67.531 22.102,-67.563 22.219,-67.563C22.344,-67.625 22.492,-67.656 22.672,-67.656C22.973,-67.414 23.301,-67.266 23.656,-67.203C24.02,-67.141 24.352,-67.051 24.656,-66.938C24.77,-66.875 24.898,-66.875 25.047,-66.938C25.203,-67 25.367,-67.055 25.547,-67.109C25.848,-66.754 26.238,-66.531 26.719,-66.438C27.195,-66.352 27.676,-66.219 28.156,-66.031C28.039,-65.977 27.922,-65.891 27.797,-65.766C27.68,-65.648 27.563,-65.563 27.438,-65.5C27.801,-65.133 27.863,-64.801 27.625,-64.5C27.563,-64.383 27.516,-64.266 27.484,-64.141C27.453,-64.023 27.438,-63.906 27.438,-63.781C27.438,-63.664 27.477,-63.547 27.563,-63.422C27.656,-63.305 27.582,-63.219 27.344,-63.156C27.344,-62.977 27.375,-62.891 27.438,-62.891C27.676,-62.828 27.93,-62.781 28.203,-62.75C28.473,-62.719 28.727,-62.676 28.969,-62.625C28.906,-62.563 28.813,-62.516 28.688,-62.484C28.57,-62.453 28.457,-62.406 28.344,-62.344C28.219,-62.289 28.094,-62.234 27.969,-62.172C27.852,-62.109 27.738,-62.02 27.625,-61.906C27.5,-61.844 27.406,-61.734 27.344,-61.578C27.289,-61.43 27.203,-61.297 27.078,-61.172C27.141,-60.879 27.051,-60.641 26.813,-60.453L27.703,-60.453C27.828,-60.211 27.914,-60.004 27.969,-59.828C28.031,-59.648 28.094,-59.5 28.156,-59.375C28.156,-59.32 28.066,-59.297 27.891,-59.297C27.891,-59.234 27.906,-59.156 27.938,-59.063C27.969,-58.969 27.984,-58.895 27.984,-58.844C28.098,-58.602 28.004,-58.363 27.703,-58.125C27.461,-58 27.191,-57.906 26.891,-57.844C26.598,-57.789 26.301,-57.672 26,-57.484C25.938,-57.484 25.891,-57.469 25.859,-57.438C25.836,-57.414 25.797,-57.406 25.734,-57.406C25.191,-57.457 24.68,-57.379 24.203,-57.172C23.723,-56.961 23.211,-56.859 22.672,-56.859C22.305,-56.859 21.977,-56.77 21.688,-56.594C21.563,-56.594 21.453,-56.563 21.359,-56.5C21.273,-56.438 21.172,-56.379 21.047,-56.328C20.629,-56.266 20.207,-56.234 19.781,-56.234C19.363,-56.234 18.914,-56.172 18.438,-56.047C18.02,-55.984 17.613,-55.879 17.219,-55.734C16.832,-55.586 16.398,-55.453 15.922,-55.328C15.68,-55.266 15.426,-55.203 15.156,-55.141C14.883,-55.086 14.602,-55 14.313,-54.875C14.125,-54.82 13.91,-54.676 13.672,-54.438C13.797,-54.195 13.883,-53.953 13.938,-53.703C14,-53.461 14.063,-53.254 14.125,-53.078C14.125,-52.66 14.156,-52.363 14.219,-52.188C14.332,-51.707 14.445,-51.195 14.563,-50.656C14.688,-50.113 14.781,-49.57 14.844,-49.031C14.844,-48.613 14.914,-48.223 15.063,-47.859C15.219,-47.504 15.266,-47.113 15.203,-46.688C15.141,-46.445 15.156,-46.207 15.25,-45.969C15.344,-45.727 15.328,-45.52 15.203,-45.344C15.086,-45.039 15.117,-44.801 15.297,-44.625C15.598,-44.445 15.656,-44.266 15.469,-44.078C15.227,-43.898 15.125,-43.723 15.156,-43.547C15.188,-43.367 15.234,-43.219 15.297,-43.094C15.598,-42.852 15.719,-42.566 15.656,-42.234C15.594,-41.91 15.563,-41.598 15.563,-41.297C15.563,-40.879 15.578,-40.414 15.609,-39.906C15.641,-39.395 15.688,-38.898 15.75,-38.422C15.75,-38.18 15.895,-38.063 16.188,-38.063C16.313,-38.063 16.398,-38.07 16.453,-38.094C16.516,-38.125 16.578,-38.141 16.641,-38.141C16.941,-38.266 17.242,-38.352 17.547,-38.406C17.848,-38.469 18.117,-38.5 18.359,-38.5C18.648,-38.5 18.961,-38.57 19.297,-38.719C19.629,-38.875 19.945,-38.984 20.25,-39.047C20.488,-39.16 20.738,-39.25 21,-39.313C21.27,-39.375 21.523,-39.344 21.766,-39.219C21.891,-39.164 22.039,-39.18 22.219,-39.266C22.395,-39.359 22.578,-39.438 22.766,-39.5C22.879,-39.563 23.008,-39.602 23.156,-39.625C23.313,-39.656 23.453,-39.703 23.578,-39.766C23.867,-39.891 24.047,-40.07 24.109,-40.313C24.172,-40.488 24.352,-40.578 24.656,-40.578C24.77,-40.453 24.914,-40.391 25.094,-40.391C25.695,-40.391 26.086,-40.125 26.266,-39.594C26.391,-39.645 26.492,-39.672 26.578,-39.672C26.672,-39.672 26.75,-39.703 26.813,-39.766C27.113,-40.004 27.441,-40.141 27.797,-40.172C28.16,-40.203 28.52,-40.25 28.875,-40.313C29,-40.313 29.133,-40.336 29.281,-40.391C29.438,-40.453 29.57,-40.516 29.688,-40.578C29.813,-40.453 30.051,-40.27 30.406,-40.031C30.707,-39.789 30.738,-39.551 30.5,-39.313C30.258,-39.07 30.211,-38.848 30.359,-38.641C30.516,-38.43 30.531,-38.207 30.406,-37.969C30.707,-37.969 30.922,-37.938 31.047,-37.875C31.047,-37.938 31.07,-38 31.125,-38.063C31.125,-37.875 31.188,-37.723 31.313,-37.609C31.488,-37.672 31.664,-37.727 31.844,-37.781C32.031,-37.844 32.242,-37.906 32.484,-37.969C32.359,-37.789 32.238,-37.582 32.125,-37.344C32.363,-37.219 32.57,-37.125 32.75,-37.063C32.625,-36.945 32.5,-36.813 32.375,-36.656C32.258,-36.508 32.145,-36.348 32.031,-36.172C32.27,-36.172 32.445,-36.141 32.563,-36.078C32.563,-36.016 32.504,-35.863 32.391,-35.625C32.504,-35.563 32.609,-35.516 32.703,-35.484C32.797,-35.461 32.867,-35.422 32.922,-35.359L32.922,-35.172C32.504,-34.879 32.352,-34.566 32.469,-34.234C32.594,-33.898 32.742,-33.582 32.922,-33.281C33.047,-33.164 33.047,-32.895 32.922,-32.469C32.805,-32.051 32.66,-31.785 32.484,-31.672C32.359,-31.43 32.207,-31.219 32.031,-31.031C31.852,-30.852 31.672,-30.645 31.484,-30.406L32.125,-30.406C32.063,-30.227 31.984,-30.063 31.891,-29.906C31.805,-29.758 31.734,-29.598 31.672,-29.422C31.547,-29.359 31.422,-29.281 31.297,-29.188C31.18,-29.102 31.066,-29 30.953,-28.875C30.828,-28.82 30.676,-28.766 30.5,-28.703C30.32,-28.641 30.141,-28.551 29.953,-28.438C29.898,-28.375 29.813,-28.313 29.688,-28.25C29.57,-28.188 29.453,-28.125 29.328,-28.063C29.211,-28.008 29.078,-27.969 28.922,-27.938C28.773,-27.906 28.641,-27.859 28.516,-27.797C28.398,-27.734 28.281,-27.703 28.156,-27.703C28.039,-27.703 27.922,-27.645 27.797,-27.531C27.68,-27.469 27.578,-27.422 27.484,-27.391C27.391,-27.359 27.285,-27.375 27.172,-27.438C27.047,-27.563 26.984,-27.563 26.984,-27.438C26.742,-27.258 26.473,-27.172 26.172,-27.172C25.879,-27.172 25.582,-27.109 25.281,-26.984C25.039,-26.93 24.816,-26.859 24.609,-26.766C24.398,-26.672 24.145,-26.625 23.844,-26.625C23.602,-26.688 23.332,-26.656 23.031,-26.531C22.727,-26.414 22.426,-26.328 22.125,-26.266C21.883,-26.211 21.613,-26.172 21.313,-26.141C21.02,-26.109 20.723,-26.031 20.422,-25.906C20.066,-25.852 19.691,-25.797 19.297,-25.734C18.91,-25.672 18.566,-25.551 18.266,-25.375C17.898,-25.133 17.391,-25.07 16.734,-25.188C16.078,-25.188 15.75,-24.859 15.75,-24.203C15.75,-24.141 15.719,-24.047 15.656,-23.922C15.594,-23.805 15.531,-23.691 15.469,-23.578C15.707,-23.453 15.922,-23.332 16.109,-23.219C16.047,-22.977 15.953,-22.723 15.828,-22.453C15.711,-22.18 15.625,-21.895 15.563,-21.594C15.5,-21.352 15.5,-21.113 15.563,-20.875C15.625,-20.633 15.656,-20.363 15.656,-20.063C15.656,-19.758 15.641,-19.473 15.609,-19.203C15.578,-18.93 15.563,-18.648 15.563,-18.359C15.5,-18.117 15.469,-17.906 15.469,-17.719L15.469,-17.188C15.531,-16.645 15.547,-16.117 15.516,-15.609C15.484,-15.098 15.469,-14.602 15.469,-14.125C15.414,-13.883 15.414,-13.645 15.469,-13.406C15.531,-13.164 15.473,-12.895 15.297,-12.594C15.297,-12.531 15.352,-12.426 15.469,-12.281C15.594,-12.133 15.688,-12 15.75,-11.875C15.508,-11.695 15.398,-11.457 15.422,-11.156C15.453,-10.852 15.258,-10.645 14.844,-10.531C15.145,-10.469 15.297,-10.254 15.297,-9.891C15.234,-9.598 15.203,-9.301 15.203,-9C15.203,-8.695 15.172,-8.395 15.109,-8.094C15.109,-7.977 15.051,-7.859 14.938,-7.734C15.113,-7.555 15.289,-7.406 15.469,-7.281C15.113,-7.039 14.961,-6.738 15.016,-6.375C15.078,-6.02 15.082,-5.664 15.031,-5.313L15.031,-4.625C15.031,-4.414 15,-4.191 14.938,-3.953L14.938,-2.344C14.938,-1.801 14.906,-1.258 14.844,-0.719C14.844,-0.539 14.754,-0.363 14.578,-0.188C13.859,0.352 13.379,1.016 13.141,1.797C12.953,2.336 12.5,2.816 11.781,3.234C11.301,3.359 11.094,3.629 11.156,4.047C11.156,4.047 11.066,4.133 10.891,4.313C10.828,4.375 10.797,4.438 10.797,4.5C10.797,4.563 10.766,4.648 10.703,4.766L10.172,4.766C10.172,4.648 10.18,4.516 10.203,4.359C10.234,4.211 10.25,4.078 10.25,3.953C10.008,3.66 9.695,3.469 9.313,3.375C8.926,3.281 8.641,3.023 8.453,2.609C8.336,2.367 8.16,2.234 7.922,2.203C7.68,2.172 7.469,2.188 7.281,2.25C7.102,2.313 6.926,2.367 6.75,2.422C6.57,2.484 6.422,2.633 6.297,2.875C6.234,2.938 6.129,2.984 5.984,3.016C5.836,3.047 5.703,3.094 5.578,3.156C5.578,2.906 5.609,2.691 5.672,2.516C5.734,2.336 5.641,2.188 5.391,2.063C5.273,2.008 5.141,1.969 4.984,1.938C4.836,1.906 4.676,1.859 4.5,1.797C4.375,1.316 4.25,0.82 4.125,0.313C4.008,-0.195 3.895,-0.723 3.781,-1.266C3.719,-1.379 3.703,-1.477 3.734,-1.563C3.766,-1.656 3.781,-1.734 3.781,-1.797C3.895,-1.922 3.953,-2.008 3.953,-2.063C3.773,-2.539 3.727,-3.004 3.813,-3.453C3.906,-3.91 3.863,-4.348 3.688,-4.766C3.625,-4.891 3.625,-5.039 3.688,-5.219C3.75,-5.395 3.813,-5.547 3.875,-5.672C3.875,-5.973 3.898,-6.18 3.953,-6.297C3.953,-6.66 3.984,-7.02 4.047,-7.375C4.109,-7.738 4.078,-8.066 3.953,-8.359C3.898,-8.723 3.945,-9.023 4.094,-9.266C4.238,-9.504 4.344,-9.742 4.406,-9.984C4.469,-10.223 4.453,-10.445 4.359,-10.656C4.273,-10.863 4.203,-11.094 4.141,-11.344C4.254,-11.344 4.375,-11.281 4.5,-11.156C4.563,-11.219 4.617,-11.25 4.672,-11.25C4.555,-11.426 4.438,-11.602 4.313,-11.781C4.195,-11.969 4.078,-12.117 3.953,-12.234C4.078,-12.473 4.172,-12.625 4.234,-12.688L4.234,-14.297C4.234,-14.836 4.258,-15.348 4.313,-15.828L4.313,-17.219C4.313,-17.676 4.344,-18.113 4.406,-18.531C4.406,-18.707 4.422,-18.883 4.453,-19.063C4.484,-19.25 4.379,-19.398 4.141,-19.516C4.254,-19.641 4.344,-19.742 4.406,-19.828C4.469,-19.922 4.531,-20 4.594,-20.063C4.289,-20.363 4.211,-20.676 4.359,-21C4.516,-21.332 4.617,-21.617 4.672,-21.859C4.555,-22.336 4.438,-22.789 4.313,-23.219C4.375,-23.219 4.469,-23.273 4.594,-23.391C4.594,-23.453 4.578,-23.523 4.547,-23.609C4.516,-23.703 4.5,-23.781 4.5,-23.844C4.563,-24.563 4.234,-24.953 3.516,-25.016C3.629,-25.129 3.719,-25.219 3.781,-25.281C3.844,-25.344 3.898,-25.406 3.953,-25.469C3.773,-25.469 3.566,-25.523 3.328,-25.641C3.391,-25.703 3.438,-25.758 3.469,-25.813C3.5,-25.875 3.539,-25.938 3.594,-26C3.957,-26.414 3.957,-26.805 3.594,-27.172C3.414,-27.41 3.25,-27.648 3.094,-27.891C2.945,-28.129 2.695,-28.281 2.344,-28.344C2.219,-28.406 2.125,-28.539 2.063,-28.75C2.008,-28.957 1.922,-29.18 1.797,-29.422C2.336,-29.422 2.664,-29.629 2.781,-30.047C2.844,-30.109 2.992,-30.195 3.234,-30.313C3.359,-30.313 3.477,-30.375 3.594,-30.5C3.719,-30.738 3.883,-30.977 4.094,-31.219C4.301,-31.457 4.406,-31.695 4.406,-31.938C4.531,-32.238 4.602,-32.535 4.625,-32.828C4.656,-33.129 4.582,-33.43 4.406,-33.734C4.289,-33.859 4.234,-33.977 4.234,-34.094C4.109,-34.57 3.805,-34.93 3.328,-35.172C3.504,-35.297 3.711,-35.414 3.953,-35.531C4.191,-35.656 4.43,-35.75 4.672,-35.813L4.672,-37.063C4.672,-37.063 4.656,-37.078 4.625,-37.109C4.602,-37.141 4.563,-37.188 4.5,-37.25L4.5,-37.422C4.563,-37.484 4.617,-37.547 4.672,-37.609C4.734,-37.672 4.766,-37.758 4.766,-37.875C4.766,-38.176 4.82,-38.445 4.938,-38.688C5.063,-38.926 5.066,-39.164 4.953,-39.406C4.891,-39.707 4.875,-39.945 4.906,-40.125C4.938,-40.301 4.953,-40.508 4.953,-40.75C4.953,-41.051 4.961,-41.32 4.984,-41.563C5.016,-41.801 5.063,-42.039 5.125,-42.281C5.125,-42.582 5.066,-42.766 4.953,-42.828C4.711,-43.004 4.648,-43.148 4.766,-43.266C4.891,-43.391 4.977,-43.484 5.031,-43.547C5.219,-43.848 5.297,-44.145 5.266,-44.438C5.234,-44.738 5.188,-45.039 5.125,-45.344C5.125,-45.469 5.109,-45.602 5.078,-45.75C5.047,-45.895 5.063,-46.031 5.125,-46.156C5.125,-46.57 5.035,-46.961 4.859,-47.328C4.797,-47.441 4.734,-47.586 4.672,-47.766C4.617,-47.953 4.711,-48.102 4.953,-48.219C4.891,-48.344 4.813,-48.422 4.719,-48.453C4.633,-48.484 4.594,-48.5 4.594,-48.5C4.531,-48.914 4.469,-49.301 4.406,-49.656C4.344,-50.02 4.254,-50.41 4.141,-50.828C3.723,-50.953 3.539,-51.254 3.594,-51.734C3.594,-51.797 3.547,-51.867 3.453,-51.953C3.367,-52.047 3.297,-52.148 3.234,-52.266C3.18,-52.391 3.273,-52.492 3.516,-52.578C3.754,-52.672 3.781,-52.836 3.594,-53.078C3.832,-53.141 4.039,-53.172 4.219,-53.172L4.766,-53.172C4.766,-53.535 4.688,-53.672 4.531,-53.578C4.383,-53.484 4.254,-53.469 4.141,-53.531C4.254,-53.656 4.359,-53.789 4.453,-53.938C4.547,-54.082 4.648,-54.25 4.766,-54.438C4.586,-54.488 4.422,-54.531 4.266,-54.563C4.117,-54.594 3.957,-54.609 3.781,-54.609C3.781,-54.672 3.766,-54.727 3.734,-54.781C3.703,-54.844 3.688,-54.906 3.688,-54.969C3.813,-55.031 3.898,-55.086 3.953,-55.141C4.016,-55.203 4.109,-55.266 4.234,-55.328C3.992,-55.453 3.875,-55.539 3.875,-55.594C3.813,-55.781 3.781,-55.961 3.781,-56.141C3.781,-56.316 3.75,-56.469 3.688,-56.594C3.625,-56.707 3.531,-56.82 3.406,-56.938C3.289,-57.063 3.297,-57.188 3.422,-57.313C3.535,-57.426 3.625,-57.555 3.688,-57.703C3.75,-57.859 3.813,-58 3.875,-58.125C3.688,-58.414 3.926,-58.742 4.594,-59.109C4.531,-59.234 4.41,-59.383 4.234,-59.563C4.285,-59.563 4.328,-59.578 4.359,-59.609C4.391,-59.641 4.406,-59.656 4.406,-59.656C5.426,-59.945 5.727,-60.57 5.313,-61.531C5.313,-61.719 5.367,-61.867 5.484,-61.984C5.672,-62.109 5.941,-62.227 6.297,-62.344C6.836,-62.582 7.406,-62.941 8,-63.422C8.301,-63.66 8.602,-63.898 8.906,-64.141C9.207,-64.379 9.535,-64.563 9.891,-64.688C10.129,-64.75 10.336,-64.852 10.516,-65C10.703,-65.156 10.914,-65.289 11.156,-65.406C10.738,-65.582 10.348,-65.613 9.984,-65.5C9.566,-65.375 9.16,-65.25 8.766,-65.125C8.379,-65.008 7.977,-64.895 7.563,-64.781C7.258,-64.719 6.957,-64.641 6.656,-64.547C6.352,-64.461 6.055,-64.359 5.766,-64.234C5.578,-64.234 5.453,-64.203 5.391,-64.141C5.148,-64.023 4.926,-63.875 4.719,-63.688C4.508,-63.508 4.254,-63.332 3.953,-63.156C3.953,-63.219 3.926,-63.281 3.875,-63.344C4.051,-63.582 4.285,-63.758 4.578,-63.875C4.879,-64 5.148,-64.086 5.391,-64.141Z" style="fill:rgb(136,136,136);fill-rule:nonzero;"/>
            </g>
        </g>
    </g>
    <g transform="matrix(1.33333,0,0,1.33333,381.105,140.463)">
        <g>
            <g>
                <path d="M5.391,-64.141C5.453,-64.266 5.5,-64.383 5.531,-64.5C5.563,-64.625 5.609,-64.719 5.672,-64.781C5.785,-64.895 5.906,-64.953 6.031,-64.953C6.332,-65.078 6.523,-65.195 6.609,-65.313C6.703,-65.438 6.688,-65.676 6.563,-66.031C7.582,-66.508 8.645,-66.867 9.75,-67.109C10.863,-67.348 11.992,-67.531 13.141,-67.656L13.141,-68.203C13.797,-68.254 14.422,-68.281 15.016,-68.281C15.617,-68.281 16.223,-68.461 16.828,-68.828C16.766,-68.461 16.805,-68.176 16.953,-67.969C17.109,-67.758 17.035,-67.535 16.734,-67.297C17.453,-67.359 18.141,-67.414 18.797,-67.469C19.461,-67.531 20.094,-67.594 20.688,-67.656C20.75,-67.352 20.988,-67.266 21.406,-67.391C21.531,-67.391 21.664,-67.414 21.813,-67.469C21.969,-67.531 22.102,-67.563 22.219,-67.563C22.344,-67.625 22.492,-67.656 22.672,-67.656C22.973,-67.414 23.301,-67.266 23.656,-67.203C24.02,-67.141 24.352,-67.051 24.656,-66.938C24.77,-66.875 24.898,-66.875 25.047,-66.938C25.203,-67 25.367,-67.055 25.547,-67.109C25.848,-66.754 26.238,-66.531 26.719,-66.438C27.195,-66.352 27.676,-66.219 28.156,-66.031C28.039,-65.977 27.922,-65.891 27.797,-65.766C27.68,-65.648 27.563,-65.563 27.438,-65.5C27.801,-65.133 27.863,-64.801 27.625,-64.5C27.563,-64.383 27.516,-64.266 27.484,-64.141C27.453,-64.023 27.438,-63.906 27.438,-63.781C27.438,-63.664 27.477,-63.547 27.563,-63.422C27.656,-63.305 27.582,-63.219 27.344,-63.156C27.344,-62.977 27.375,-62.891 27.438,-62.891C27.676,-62.828 27.93,-62.781 28.203,-62.75C28.473,-62.719 28.727,-62.676 28.969,-62.625C28.906,-62.563 28.813,-62.516 28.688,-62.484C28.57,-62.453 28.457,-62.406 28.344,-62.344C28.219,-62.289 28.094,-62.234 27.969,-62.172C27.852,-62.109 27.738,-62.02 27.625,-61.906C27.5,-61.844 27.406,-61.734 27.344,-61.578C27.289,-61.43 27.203,-61.297 27.078,-61.172C27.141,-60.879 27.051,-60.641 26.813,-60.453L27.703,-60.453C27.828,-60.211 27.914,-60.004 27.969,-59.828C28.031,-59.648 28.094,-59.5 28.156,-59.375C28.156,-59.32 28.066,-59.297 27.891,-59.297C27.891,-59.234 27.906,-59.156 27.938,-59.063C27.969,-58.969 27.984,-58.895 27.984,-58.844C28.098,-58.602 28.004,-58.363 27.703,-58.125C27.461,-58 27.191,-57.906 26.891,-57.844C26.598,-57.789 26.301,-57.672 26,-57.484C25.938,-57.484 25.891,-57.469 25.859,-57.438C25.836,-57.414 25.797,-57.406 25.734,-57.406C25.191,-57.457 24.68,-57.379 24.203,-57.172C23.723,-56.961 23.211,-56.859 22.672,-56.859C22.305,-56.859 21.977,-56.77 21.688,-56.594C21.563,-56.594 21.453,-56.563 21.359,-56.5C21.273,-56.438 21.172,-56.379 21.047,-56.328C20.629,-56.266 20.207,-56.234 19.781,-56.234C19.363,-56.234 18.914,-56.172 18.438,-56.047C18.02,-55.984 17.613,-55.879 17.219,-55.734C16.832,-55.586 16.398,-55.453 15.922,-55.328C15.68,-55.266 15.426,-55.203 15.156,-55.141C14.883,-55.086 14.602,-55 14.313,-54.875C14.125,-54.82 13.91,-54.676 13.672,-54.438C13.797,-54.195 13.883,-53.953 13.938,-53.703C14,-53.461 14.063,-53.254 14.125,-53.078C14.125,-52.66 14.156,-52.363 14.219,-52.188C14.332,-51.707 14.445,-51.195 14.563,-50.656C14.688,-50.113 14.781,-49.57 14.844,-49.031C14.844,-48.613 14.914,-48.223 15.063,-47.859C15.219,-47.504 15.266,-47.113 15.203,-46.688C15.141,-46.445 15.156,-46.207 15.25,-45.969C15.344,-45.727 15.328,-45.52 15.203,-45.344C15.086,-45.039 15.117,-44.801 15.297,-44.625C15.598,-44.445 15.656,-44.266 15.469,-44.078C15.227,-43.898 15.125,-43.723 15.156,-43.547C15.188,-43.367 15.234,-43.219 15.297,-43.094C15.598,-42.852 15.719,-42.566 15.656,-42.234C15.594,-41.91 15.563,-41.598 15.563,-41.297C15.563,-40.879 15.578,-40.414 15.609,-39.906C15.641,-39.395 15.688,-38.898 15.75,-38.422C15.75,-38.18 15.895,-38.063 16.188,-38.063C16.313,-38.063 16.398,-38.07 16.453,-38.094C16.516,-38.125 16.578,-38.141 16.641,-38.141C16.941,-38.266 17.242,-38.352 17.547,-38.406C17.848,-38.469 18.117,-38.5 18.359,-38.5C18.648,-38.5 18.961,-38.57 19.297,-38.719C19.629,-38.875 19.945,-38.984 20.25,-39.047C20.488,-39.16 20.738,-39.25 21,-39.313C21.27,-39.375 21.523,-39.344 21.766,-39.219C21.891,-39.164 22.039,-39.18 22.219,-39.266C22.395,-39.359 22.578,-39.438 22.766,-39.5C22.879,-39.563 23.008,-39.602 23.156,-39.625C23.313,-39.656 23.453,-39.703 23.578,-39.766C23.867,-39.891 24.047,-40.07 24.109,-40.313C24.172,-40.488 24.352,-40.578 24.656,-40.578C24.77,-40.453 24.914,-40.391 25.094,-40.391C25.695,-40.391 26.086,-40.125 26.266,-39.594C26.391,-39.645 26.492,-39.672 26.578,-39.672C26.672,-39.672 26.75,-39.703 26.813,-39.766C27.113,-40.004 27.441,-40.141 27.797,-40.172C28.16,-40.203 28.52,-40.25 28.875,-40.313C29,-40.313 29.133,-40.336 29.281,-40.391C29.438,-40.453 29.57,-40.516 29.688,-40.578C29.813,-40.453 30.051,-40.27 30.406,-40.031C30.707,-39.789 30.738,-39.551 30.5,-39.313C30.258,-39.07 30.211,-38.848 30.359,-38.641C30.516,-38.43 30.531,-38.207 30.406,-37.969C30.707,-37.969 30.922,-37.938 31.047,-37.875C31.047,-37.938 31.07,-38 31.125,-38.063C31.125,-37.875 31.188,-37.723 31.313,-37.609C31.488,-37.672 31.664,-37.727 31.844,-37.781C32.031,-37.844 32.242,-37.906 32.484,-37.969C32.359,-37.789 32.238,-37.582 32.125,-37.344C32.363,-37.219 32.57,-37.125 32.75,-37.063C32.625,-36.945 32.5,-36.813 32.375,-36.656C32.258,-36.508 32.145,-36.348 32.031,-36.172C32.27,-36.172 32.445,-36.141 32.563,-36.078C32.563,-36.016 32.504,-35.863 32.391,-35.625C32.504,-35.563 32.609,-35.516 32.703,-35.484C32.797,-35.461 32.867,-35.422 32.922,-35.359L32.922,-35.172C32.504,-34.879 32.352,-34.566 32.469,-34.234C32.594,-33.898 32.742,-33.582 32.922,-33.281C33.047,-33.164 33.047,-32.895 32.922,-32.469C32.805,-32.051 32.66,-31.785 32.484,-31.672C32.359,-31.43 32.207,-31.219 32.031,-31.031C31.852,-30.852 31.672,-30.645 31.484,-30.406L32.125,-30.406C32.063,-30.227 31.984,-30.063 31.891,-29.906C31.805,-29.758 31.734,-29.598 31.672,-29.422C31.547,-29.359 31.422,-29.281 31.297,-29.188C31.18,-29.102 31.066,-29 30.953,-28.875C30.828,-28.82 30.676,-28.766 30.5,-28.703C30.32,-28.641 30.141,-28.551 29.953,-28.438C29.898,-28.375 29.813,-28.313 29.688,-28.25C29.57,-28.188 29.453,-28.125 29.328,-28.063C29.211,-28.008 29.078,-27.969 28.922,-27.938C28.773,-27.906 28.641,-27.859 28.516,-27.797C28.398,-27.734 28.281,-27.703 28.156,-27.703C28.039,-27.703 27.922,-27.645 27.797,-27.531C27.68,-27.469 27.578,-27.422 27.484,-27.391C27.391,-27.359 27.285,-27.375 27.172,-27.438C27.047,-27.563 26.984,-27.563 26.984,-27.438C26.742,-27.258 26.473,-27.172 26.172,-27.172C25.879,-27.172 25.582,-27.109 25.281,-26.984C25.039,-26.93 24.816,-26.859 24.609,-26.766C24.398,-26.672 24.145,-26.625 23.844,-26.625C23.602,-26.688 23.332,-26.656 23.031,-26.531C22.727,-26.414 22.426,-26.328 22.125,-26.266C21.883,-26.211 21.613,-26.172 21.313,-26.141C21.02,-26.109 20.723,-26.031 20.422,-25.906C20.066,-25.852 19.691,-25.797 19.297,-25.734C18.91,-25.672 18.566,-25.551 18.266,-25.375C17.898,-25.133 17.391,-25.07 16.734,-25.188C16.078,-25.188 15.75,-24.859 15.75,-24.203C15.75,-24.141 15.719,-24.047 15.656,-23.922C15.594,-23.805 15.531,-23.691 15.469,-23.578C15.707,-23.453 15.922,-23.332 16.109,-23.219C16.047,-22.977 15.953,-22.723 15.828,-22.453C15.711,-22.18 15.625,-21.895 15.563,-21.594C15.5,-21.352 15.5,-21.113 15.563,-20.875C15.625,-20.633 15.656,-20.363 15.656,-20.063C15.656,-19.758 15.641,-19.473 15.609,-19.203C15.578,-18.93 15.563,-18.648 15.563,-18.359C15.5,-18.117 15.469,-17.906 15.469,-17.719L15.469,-17.188C15.531,-16.645 15.547,-16.117 15.516,-15.609C15.484,-15.098 15.469,-14.602 15.469,-14.125C15.414,-13.883 15.414,-13.645 15.469,-13.406C15.531,-13.164 15.473,-12.895 15.297,-12.594C15.297,-12.531 15.352,-12.426 15.469,-12.281C15.594,-12.133 15.688,-12 15.75,-11.875C15.508,-11.695 15.398,-11.457 15.422,-11.156C15.453,-10.852 15.258,-10.645 14.844,-10.531C15.145,-10.469 15.297,-10.254 15.297,-9.891C15.234,-9.598 15.203,-9.301 15.203,-9C15.203,-8.695 15.172,-8.395 15.109,-8.094C15.109,-7.977 15.051,-7.859 14.938,-7.734C15.113,-7.555 15.289,-7.406 15.469,-7.281C15.113,-7.039 14.961,-6.738 15.016,-6.375C15.078,-6.02 15.082,-5.664 15.031,-5.313L15.031,-4.625C15.031,-4.414 15,-4.191 14.938,-3.953L14.938,-2.344C14.938,-1.801 14.906,-1.258 14.844,-0.719C14.844,-0.539 14.754,-0.363 14.578,-0.188C13.859,0.352 13.379,1.016 13.141,1.797C12.953,2.336 12.5,2.816 11.781,3.234C11.301,3.359 11.094,3.629 11.156,4.047C11.156,4.047 11.066,4.133 10.891,4.313C10.828,4.375 10.797,4.438 10.797,4.5C10.797,4.563 10.766,4.648 10.703,4.766L10.172,4.766C10.172,4.648 10.18,4.516 10.203,4.359C10.234,4.211 10.25,4.078 10.25,3.953C10.008,3.66 9.695,3.469 9.313,3.375C8.926,3.281 8.641,3.023 8.453,2.609C8.336,2.367 8.16,2.234 7.922,2.203C7.68,2.172 7.469,2.188 7.281,2.25C7.102,2.313 6.926,2.367 6.75,2.422C6.57,2.484 6.422,2.633 6.297,2.875C6.234,2.938 6.129,2.984 5.984,3.016C5.836,3.047 5.703,3.094 5.578,3.156C5.578,2.906 5.609,2.691 5.672,2.516C5.734,2.336 5.641,2.188 5.391,2.063C5.273,2.008 5.141,1.969 4.984,1.938C4.836,1.906 4.676,1.859 4.5,1.797C4.375,1.316 4.25,0.82 4.125,0.313C4.008,-0.195 3.895,-0.723 3.781,-1.266C3.719,-1.379 3.703,-1.477 3.734,-1.563C3.766,-1.656 3.781,-1.734 3.781,-1.797C3.895,-1.922 3.953,-2.008 3.953,-2.063C3.773,-2.539 3.727,-3.004 3.813,-3.453C3.906,-3.91 3.863,-4.348 3.688,-4.766C3.625,-4.891 3.625,-5.039 3.688,-5.219C3.75,-5.395 3.813,-5.547 3.875,-5.672C3.875,-5.973 3.898,-6.18 3.953,-6.297C3.953,-6.66 3.984,-7.02 4.047,-7.375C4.109,-7.738 4.078,-8.066 3.953,-8.359C3.898,-8.723 3.945,-9.023 4.094,-9.266C4.238,-9.504 4.344,-9.742 4.406,-9.984C4.469,-10.223 4.453,-10.445 4.359,-10.656C4.273,-10.863 4.203,-11.094 4.141,-11.344C4.254,-11.344 4.375,-11.281 4.5,-11.156C4.563,-11.219 4.617,-11.25 4.672,-11.25C4.555,-11.426 4.438,-11.602 4.313,-11.781C4.195,-11.969 4.078,-12.117 3.953,-12.234C4.078,-12.473 4.172,-12.625 4.234,-12.688L4.234,-14.297C4.234,-14.836 4.258,-15.348 4.313,-15.828L4.313,-17.219C4.313,-17.676 4.344,-18.113 4.406,-18.531C4.406,-18.707 4.422,-18.883 4.453,-19.063C4.484,-19.25 4.379,-19.398 4.141,-19.516C4.254,-19.641 4.344,-19.742 4.406,-19.828C4.469,-19.922 4.531,-20 4.594,-20.063C4.289,-20.363 4.211,-20.676 4.359,-21C4.516,-21.332 4.617,-21.617 4.672,-21.859C4.555,-22.336 4.438,-22.789 4.313,-23.219C4.375,-23.219 4.469,-23.273 4.594,-23.391C4.594,-23.453 4.578,-23.523 4.547,-23.609C4.516,-23.703 4.5,-23.781 4.5,-23.844C4.563,-24.563 4.234,-24.953 3.516,-25.016C3.629,-25.129 3.719,-25.219 3.781,-25.281C3.844,-25.344 3.898,-25.406 3.953,-25.469C3.773,-25.469 3.566,-25.523 3.328,-25.641C3.391,-25.703 3.438,-25.758 3.469,-25.813C3.5,-25.875 3.539,-25.938 3.594,-26C3.957,-26.414 3.957,-26.805 3.594,-27.172C3.414,-27.41 3.25,-27.648 3.094,-27.891C2.945,-28.129 2.695,-28.281 2.344,-28.344C2.219,-28.406 2.125,-28.539 2.063,-28.75C2.008,-28.957 1.922,-29.18 1.797,-29.422C2.336,-29.422 2.664,-29.629 2.781,-30.047C2.844,-30.109 2.992,-30.195 3.234,-30.313C3.359,-30.313 3.477,-30.375 3.594,-30.5C3.719,-30.738 3.883,-30.977 4.094,-31.219C4.301,-31.457 4.406,-31.695 4.406,-31.938C4.531,-32.238 4.602,-32.535 4.625,-32.828C4.656,-33.129 4.582,-33.43 4.406,-33.734C4.289,-33.859 4.234,-33.977 4.234,-34.094C4.109,-34.57 3.805,-34.93 3.328,-35.172C3.504,-35.297 3.711,-35.414 3.953,-35.531C4.191,-35.656 4.43,-35.75 4.672,-35.813L4.672,-37.063C4.672,-37.063 4.656,-37.078 4.625,-37.109C4.602,-37.141 4.563,-37.188 4.5,-37.25L4.5,-37.422C4.563,-37.484 4.617,-37.547 4.672,-37.609C4.734,-37.672 4.766,-37.758 4.766,-37.875C4.766,-38.176 4.82,-38.445 4.938,-38.688C5.063,-38.926 5.066,-39.164 4.953,-39.406C4.891,-39.707 4.875,-39.945 4.906,-40.125C4.938,-40.301 4.953,-40.508 4.953,-40.75C4.953,-41.051 4.961,-41.32 4.984,-41.563C5.016,-41.801 5.063,-42.039 5.125,-42.281C5.125,-42.582 5.066,-42.766 4.953,-42.828C4.711,-43.004 4.648,-43.148 4.766,-43.266C4.891,-43.391 4.977,-43.484 5.031,-43.547C5.219,-43.848 5.297,-44.145 5.266,-44.438C5.234,-44.738 5.188,-45.039 5.125,-45.344C5.125,-45.469 5.109,-45.602 5.078,-45.75C5.047,-45.895 5.063,-46.031 5.125,-46.156C5.125,-46.57 5.035,-46.961 4.859,-47.328C4.797,-47.441 4.734,-47.586 4.672,-47.766C4.617,-47.953 4.711,-48.102 4.953,-48.219C4.891,-48.344 4.813,-48.422 4.719,-48.453C4.633,-48.484 4.594,-48.5 4.594,-48.5C4.531,-48.914 4.469,-49.301 4.406,-49.656C4.344,-50.02 4.254,-50.41 4.141,-50.828C3.723,-50.953 3.539,-51.254 3.594,-51.734C3.594,-51.797 3.547,-51.867 3.453,-51.953C3.367,-52.047 3.297,-52.148 3.234,-52.266C3.18,-52.391 3.273,-52.492 3.516,-52.578C3.754,-52.672 3.781,-52.836 3.594,-53.078C3.832,-53.141 4.039,-53.172 4.219,-53.172L4.766,-53.172C4.766,-53.535 4.688,-53.672 4.531,-53.578C4.383,-53.484 4.254,-53.469 4.141,-53.531C4.254,-53.656 4.359,-53.789 4.453,-53.938C4.547,-54.082 4.648,-54.25 4.766,-54.438C4.586,-54.488 4.422,-54.531 4.266,-54.563C4.117,-54.594 3.957,-54.609 3.781,-54.609C3.781,-54.672 3.766,-54.727 3.734,-54.781C3.703,-54.844 3.688,-54.906 3.688,-54.969C3.813,-55.031 3.898,-55.086 3.953,-55.141C4.016,-55.203 4.109,-55.266 4.234,-55.328C3.992,-55.453 3.875,-55.539 3.875,-55.594C3.813,-55.781 3.781,-55.961 3.781,-56.141C3.781,-56.316 3.75,-56.469 3.688,-56.594C3.625,-56.707 3.531,-56.82 3.406,-56.938C3.289,-57.063 3.297,-57.188 3.422,-57.313C3.535,-57.426 3.625,-57.555 3.688,-57.703C3.75,-57.859 3.813,-58 3.875,-58.125C3.688,-58.414 3.926,-58.742 4.594,-59.109C4.531,-59.234 4.41,-59.383 4.234,-59.563C4.285,-59.563 4.328,-59.578 4.359,-59.609C4.391,-59.641 4.406,-59.656 4.406,-59.656C5.426,-59.945 5.727,-60.57 5.313,-61.531C5.313,-61.719 5.367,-61.867 5.484,-61.984C5.672,-62.109 5.941,-62.227 6.297,-62.344C6.836,-62.582 7.406,-62.941 8,-63.422C8.301,-63.66 8.602,-63.898 8.906,-64.141C9.207,-64.379 9.535,-64.563 9.891,-64.688C10.129,-64.75 10.336,-64.852 10.516,-65C10.703,-65.156 10.914,-65.289 11.156,-65.406C10.738,-65.582 10.348,-65.613 9.984,-65.5C9.566,-65.375 9.16,-65.25 8.766,-65.125C8.379,-65.008 7.977,-64.895 7.563,-64.781C7.258,-64.719 6.957,-64.641 6.656,-64.547C6.352,-64.461 6.055,-64.359 5.766,-64.234C5.578,-64.234 5.453,-64.203 5.391,-64.141C5.148,-64.023 4.926,-63.875 4.719,-63.688C4.508,-63.508 4.254,-63.332 3.953,-63.156C3.953,-63.219 3.926,-63.281 3.875,-63.344C4.051,-63.582 4.285,-63.758 4.578,-63.875C4.879,-64 5.148,-64.086 5.391,-64.141Z" style="fill:rgb(136,136,136);fill-rule:nonzero;"/>
            </g>
        </g>
    </g>
    <g transform="matrix(1.33333,0,0,1.33333,423.69,140.463)">
        <g>
            <g>
                <path d="M17.281,-7.641C17.281,-7.703 17.266,-7.734 17.234,-7.734L17.188,-7.734C17.125,-8.035 17.133,-8.336 17.219,-8.641C17.313,-8.941 17.301,-9.238 17.188,-9.531C17.125,-9.656 17.125,-9.758 17.188,-9.844C17.25,-9.938 17.305,-10.047 17.359,-10.172L17.453,-10.078C17.453,-9.953 17.438,-9.816 17.406,-9.672C17.375,-9.523 17.359,-9.391 17.359,-9.266C17.66,-9.148 17.852,-9.117 17.938,-9.172C18.031,-9.234 18.078,-9.414 18.078,-9.719C18.023,-10.133 18.008,-10.52 18.031,-10.875C18.063,-11.238 18.078,-11.602 18.078,-11.969C18.078,-12.32 18.02,-12.594 17.906,-12.781C17.844,-12.957 17.844,-13.148 17.906,-13.359C17.969,-13.566 18,-13.789 18,-14.031C18.051,-14.156 18.063,-14.273 18.031,-14.391C18.008,-14.516 18,-14.633 18,-14.75C18,-14.875 17.984,-14.961 17.953,-15.016C17.922,-15.078 17.906,-15.141 17.906,-15.203C17.969,-15.859 18.023,-16.547 18.078,-17.266C18.141,-17.992 18.203,-18.688 18.266,-19.344C18.328,-19.645 18.313,-19.914 18.219,-20.156C18.125,-20.395 18.195,-20.633 18.438,-20.875L18.438,-21.141C18.258,-21.555 18.211,-21.945 18.297,-22.313C18.391,-22.676 18.469,-23.035 18.531,-23.391C18.531,-23.516 18.563,-23.648 18.625,-23.797C18.688,-23.941 18.688,-24.078 18.625,-24.203C18.563,-24.379 18.563,-24.539 18.625,-24.688C18.688,-24.844 18.719,-24.977 18.719,-25.094C18.77,-25.582 18.867,-26.066 19.016,-26.547C19.172,-27.023 19.129,-27.504 18.891,-27.984C18.891,-27.984 18.953,-28.16 19.078,-28.516C18.953,-28.461 18.844,-28.438 18.75,-28.438C18.664,-28.438 18.563,-28.375 18.438,-28.25C18.145,-27.883 17.77,-27.629 17.313,-27.484C16.863,-27.336 16.398,-27.203 15.922,-27.078C15.805,-27.078 15.656,-27.031 15.469,-26.938C15.289,-26.852 15.113,-26.75 14.938,-26.625C14.875,-26.625 14.813,-26.656 14.75,-26.719C14.695,-26.781 14.609,-26.813 14.484,-26.813C14.305,-26.75 14.125,-26.629 13.938,-26.453L13.406,-26.453C13.227,-26.453 13.047,-26.484 12.859,-26.547C12.328,-26.723 11.82,-26.93 11.344,-27.172C10.914,-27.41 10.582,-27.32 10.344,-26.906C10.039,-26.363 9.711,-26.332 9.359,-26.813C9.234,-26.926 9.109,-27.055 8.984,-27.203C8.867,-27.359 8.785,-27.523 8.734,-27.703C8.734,-27.891 8.641,-27.984 8.453,-27.984C8.098,-28.098 7.723,-28.203 7.328,-28.297C6.941,-28.391 6.566,-28.492 6.203,-28.609C6.023,-28.734 5.844,-28.883 5.656,-29.063C5.477,-29.238 5.332,-29.414 5.219,-29.594C5.156,-29.719 5.094,-29.883 5.031,-30.094C4.977,-30.301 4.891,-30.492 4.766,-30.672C4.828,-30.734 4.875,-30.781 4.906,-30.813C4.938,-30.844 4.977,-30.891 5.031,-30.953C4.551,-31.305 4.223,-31.738 4.047,-32.25C3.867,-32.758 3.719,-33.285 3.594,-33.828C3.719,-33.891 3.867,-33.922 4.047,-33.922C4.047,-33.984 4.078,-34.039 4.141,-34.094C3.961,-34.156 3.602,-34.336 3.063,-34.641C3.063,-34.398 3.078,-34.219 3.109,-34.094C3.141,-33.977 3.156,-33.859 3.156,-33.734C2.789,-33.859 2.52,-34.789 2.344,-36.531C2.457,-36.344 2.555,-36.16 2.641,-35.984C2.734,-35.805 2.781,-35.566 2.781,-35.266C2.781,-35.203 2.844,-35.023 2.969,-34.734L3.156,-34.734C3.27,-35.023 3.297,-35.234 3.234,-35.359C3.117,-35.66 3.078,-35.973 3.109,-36.297C3.141,-36.629 3.094,-36.977 2.969,-37.344L2.969,-37.781C2.906,-38.02 2.844,-38.242 2.781,-38.453C2.727,-38.672 2.703,-38.867 2.703,-39.047C2.703,-39.41 2.672,-39.754 2.609,-40.078C2.547,-40.41 2.457,-40.727 2.344,-41.031C2.219,-40.969 2.066,-40.848 1.891,-40.672C1.828,-40.91 1.797,-41.133 1.797,-41.344L1.797,-42.016L1.891,-42.016C1.953,-41.953 1.992,-41.859 2.016,-41.734C2.047,-41.617 2.094,-41.504 2.156,-41.391C2.332,-41.504 2.453,-41.68 2.516,-41.922C2.578,-42.16 2.547,-42.313 2.422,-42.375C2.18,-42.5 2.094,-42.617 2.156,-42.734C2.219,-42.859 2.25,-42.945 2.25,-43C2.313,-43.301 2.344,-43.602 2.344,-43.906C2.344,-44.207 2.367,-44.477 2.422,-44.719C2.484,-45.02 2.531,-45.348 2.563,-45.703C2.594,-46.066 2.609,-46.395 2.609,-46.688C2.672,-46.988 2.672,-47.305 2.609,-47.641C2.547,-47.973 2.484,-48.285 2.422,-48.578C2.422,-48.703 2.453,-48.82 2.516,-48.938C2.578,-49.063 2.641,-49.156 2.703,-49.219C2.816,-49.156 2.969,-49.125 3.156,-49.125C2.852,-49.539 2.609,-49.957 2.422,-50.375C2.367,-50.563 2.398,-50.773 2.516,-51.016C2.691,-51.129 2.781,-51.289 2.781,-51.5L2.781,-52.094C2.781,-52.332 2.797,-52.57 2.828,-52.813C2.859,-53.051 2.875,-53.289 2.875,-53.531C2.938,-53.594 2.953,-53.648 2.922,-53.703C2.891,-53.766 2.875,-53.828 2.875,-53.891C2.813,-53.891 2.781,-53.906 2.781,-53.938C2.781,-53.969 2.754,-53.984 2.703,-53.984C2.941,-54.16 3.016,-54.383 2.922,-54.656C2.828,-54.926 2.875,-55.148 3.063,-55.328C3.363,-55.566 3.5,-55.836 3.469,-56.141C3.438,-56.441 3.453,-56.742 3.516,-57.047L3.516,-58.297C3.516,-58.598 3.422,-59.02 3.234,-59.563C3.359,-59.738 3.492,-59.961 3.641,-60.234C3.797,-60.504 3.844,-60.789 3.781,-61.094C3.781,-61.445 3.988,-61.688 4.406,-61.813C4.945,-62.113 5.188,-62.504 5.125,-62.984C5.063,-63.336 5.18,-63.516 5.484,-63.516C5.723,-63.578 5.961,-63.695 6.203,-63.875C6.328,-64 6.445,-64.117 6.563,-64.234C6.688,-64.359 6.805,-64.445 6.922,-64.5C6.984,-64.563 7.102,-64.594 7.281,-64.594C7.582,-64.477 7.898,-64.422 8.234,-64.422C8.566,-64.422 8.879,-64.445 9.172,-64.5C9.648,-64.5 9.953,-64.32 10.078,-63.969C10.191,-63.844 10.305,-63.707 10.422,-63.563C10.547,-63.414 10.727,-63.43 10.969,-63.609C10.969,-63.191 11.18,-62.863 11.609,-62.625C12.086,-62.383 12.328,-62.051 12.328,-61.625C12.266,-61.563 12.266,-61.484 12.328,-61.391C12.391,-61.305 12.445,-61.207 12.5,-61.094C12.688,-60.727 12.867,-60.273 13.047,-59.734C13.285,-59.734 13.492,-59.613 13.672,-59.375C13.848,-59.133 14.031,-58.926 14.219,-58.75C14.52,-58.445 14.672,-58.145 14.672,-57.844C14.547,-57.664 14.633,-57.426 14.938,-57.125C15.238,-56.832 15.375,-56.473 15.344,-56.047C15.313,-55.629 15.383,-55.238 15.563,-54.875C15.383,-54.695 15.32,-54.531 15.375,-54.375C15.438,-54.227 15.5,-54.066 15.563,-53.891C15.625,-53.828 15.594,-53.719 15.469,-53.563C15.352,-53.414 15.266,-53.285 15.203,-53.172L15.203,-52C15.328,-51.457 15.391,-50.914 15.391,-50.375C15.391,-49.844 15.328,-49.305 15.203,-48.766L14.75,-48.766C14.27,-48.223 14.422,-47.801 15.203,-47.5L15.203,-46.25C15.141,-46.125 15.109,-45.973 15.109,-45.797C14.691,-45.316 14.664,-44.742 15.031,-44.078C15.145,-43.961 15.188,-43.844 15.156,-43.719C15.125,-43.602 15.109,-43.484 15.109,-43.359C15.055,-43.117 15.039,-42.879 15.063,-42.641C15.094,-42.398 15.141,-42.16 15.203,-41.922C15.922,-41.859 16.398,-42.129 16.641,-42.734C16.766,-43.035 16.945,-43.332 17.188,-43.625C17.426,-43.926 17.633,-44.227 17.813,-44.531C17.875,-44.594 18,-44.719 18,-44.719C17.813,-45.02 17.805,-45.227 17.984,-45.344C18.172,-45.469 18.32,-45.586 18.438,-45.703C18.625,-45.879 18.773,-46.07 18.891,-46.281C19.016,-46.5 19.164,-46.727 19.344,-46.969C19.582,-47.32 19.82,-47.676 20.063,-48.031C20.301,-48.395 20.508,-48.789 20.688,-49.219C20.813,-49.508 20.977,-49.773 21.188,-50.016C21.395,-50.254 21.5,-50.523 21.5,-50.828C21.977,-51.129 22.234,-51.52 22.266,-52C22.297,-52.477 22.461,-52.867 22.766,-53.172C23.004,-53.535 23.18,-53.742 23.297,-53.797C23.535,-53.922 23.758,-54.039 23.969,-54.156C24.188,-54.281 24.383,-54.43 24.563,-54.609C24.676,-54.785 24.805,-54.961 24.953,-55.141C25.109,-55.328 25.188,-55.539 25.188,-55.781C25.25,-55.895 25.313,-56 25.375,-56.094C25.438,-56.188 25.492,-56.266 25.547,-56.328C25.672,-56.566 25.91,-56.695 26.266,-56.719C26.629,-56.75 26.93,-56.707 27.172,-56.594C27.234,-56.945 27.473,-57.035 27.891,-56.859C28.004,-56.797 28.273,-56.766 28.703,-56.766L28.797,-56.859C28.848,-56.797 28.891,-56.719 28.922,-56.625C28.953,-56.539 29,-56.441 29.063,-56.328C29.238,-56.266 29.414,-56.203 29.594,-56.141C29.781,-56.078 29.93,-55.988 30.047,-55.875C30.109,-55.875 30.227,-55.781 30.406,-55.594C30.406,-55.477 30.438,-55.391 30.5,-55.328C30.801,-55.266 31.008,-55.098 31.125,-54.828C31.25,-54.566 31.398,-54.344 31.578,-54.156C31.754,-53.977 31.945,-53.813 32.156,-53.656C32.375,-53.508 32.57,-53.348 32.75,-53.172C32.813,-52.93 32.867,-52.66 32.922,-52.359C32.984,-52.055 33.047,-51.758 33.109,-51.469C33.109,-51.406 33.258,-51.285 33.563,-51.109C33.613,-51.047 33.656,-51.016 33.688,-51.016L33.734,-51.016C33.734,-50.535 33.766,-50.203 33.828,-50.016C34.004,-49.961 34.164,-49.906 34.313,-49.844C34.469,-49.781 34.609,-49.691 34.734,-49.578C34.672,-49.516 34.609,-49.453 34.547,-49.391C34.484,-49.328 34.426,-49.297 34.375,-49.297C34.488,-49.004 34.602,-48.691 34.719,-48.359C34.844,-48.023 34.906,-47.707 34.906,-47.406C34.844,-47.113 34.828,-46.801 34.859,-46.469C34.891,-46.133 34.848,-45.82 34.734,-45.531C34.672,-45.227 34.641,-44.895 34.641,-44.531C34.641,-44.176 34.609,-43.848 34.547,-43.547C34.547,-43.422 34.5,-43.285 34.406,-43.141C34.32,-42.992 34.25,-42.859 34.188,-42.734C34.188,-42.672 34.219,-42.609 34.281,-42.547C34.344,-42.492 34.344,-42.406 34.281,-42.281C34.219,-41.977 34.156,-41.645 34.094,-41.281C34.039,-40.926 33.984,-40.602 33.922,-40.313C33.859,-40.25 33.828,-40.172 33.828,-40.078C33.828,-39.992 33.766,-39.891 33.641,-39.766C33.348,-39.348 33.125,-38.91 32.969,-38.453C32.82,-38.004 32.66,-37.539 32.484,-37.063C32.484,-37.008 32.453,-36.938 32.391,-36.844C32.328,-36.75 32.297,-36.645 32.297,-36.531C32.473,-36.102 32.441,-35.664 32.203,-35.219C31.961,-34.77 31.875,-34.305 31.938,-33.828C32,-33.703 31.984,-33.535 31.891,-33.328C31.805,-33.117 31.734,-32.926 31.672,-32.75C31.609,-32.57 31.563,-32.391 31.531,-32.203C31.5,-32.023 31.457,-31.848 31.406,-31.672C31.344,-31.254 31.281,-30.816 31.219,-30.359C31.156,-29.91 31.125,-29.445 31.125,-28.969C31.125,-28.664 31.094,-28.348 31.031,-28.016C30.977,-27.691 30.922,-27.379 30.859,-27.078L30.859,-26.188C30.617,-25.758 30.5,-25.32 30.5,-24.875L30.5,-23.484C30.438,-23.066 30.375,-22.629 30.313,-22.172C30.258,-21.723 30.172,-21.258 30.047,-20.781L30.047,-20.328C30.172,-20.148 30.219,-19.984 30.188,-19.828C30.156,-19.68 30.141,-19.551 30.141,-19.438C30.141,-19.133 30.125,-18.863 30.094,-18.625C30.063,-18.383 30.016,-18.113 29.953,-17.813C29.953,-17.75 29.984,-17.672 30.047,-17.578C30.109,-17.492 30.141,-17.422 30.141,-17.359C30.078,-17.18 30.063,-16.988 30.094,-16.781C30.125,-16.57 30.051,-16.406 29.875,-16.281C29.813,-16.219 29.781,-16.008 29.781,-15.656C29.844,-15.352 29.883,-15.035 29.906,-14.703C29.938,-14.379 29.953,-14.035 29.953,-13.672L29.953,-13.141C29.953,-12.898 29.742,-12.781 29.328,-12.781C29.805,-12.539 29.984,-12.27 29.859,-11.969C29.742,-11.664 29.719,-11.363 29.781,-11.063C29.844,-10.82 29.875,-10.551 29.875,-10.25L29.875,-9.359C29.875,-9.234 29.898,-9.109 29.953,-8.984C30.016,-8.867 29.957,-8.754 29.781,-8.641C29.781,-8.641 29.766,-8.609 29.734,-8.547C29.703,-8.484 29.719,-8.453 29.781,-8.453C29.957,-8.391 30.031,-8.27 30,-8.094C29.969,-7.914 29.926,-7.766 29.875,-7.641C29.875,-7.523 29.859,-7.375 29.828,-7.188C29.797,-7.008 29.781,-6.863 29.781,-6.75C29.895,-6.332 29.969,-5.91 30,-5.484C30.031,-5.066 30.078,-4.617 30.141,-4.141C30.203,-4.078 30.289,-4.031 30.406,-4C30.531,-3.969 30.617,-3.895 30.672,-3.781C30.316,-3.363 30.164,-2.941 30.219,-2.516C30.281,-2.098 30.313,-1.68 30.313,-1.266C30.375,-0.898 30.301,-0.535 30.094,-0.172C29.883,0.18 29.598,0.422 29.234,0.547C29.055,0.547 28.91,0.57 28.797,0.625C28.43,0.813 28.066,0.664 27.703,0.188L27.703,1.172C27.461,1.348 27.191,1.422 26.891,1.391C26.598,1.359 26.332,1.461 26.094,1.703C25.969,1.703 25.785,1.523 25.547,1.172C25.305,1.109 25.035,1.078 24.734,1.078C24.441,1.078 24.176,1.227 23.938,1.531C23.813,1.645 23.57,1.645 23.219,1.531C22.676,1.289 22.285,1.379 22.047,1.797C21.922,1.68 21.828,1.531 21.766,1.344C21.711,1.164 21.656,0.988 21.594,0.813C21.531,0.57 21.41,0.359 21.234,0.172C21.055,-0.004 20.906,-0.211 20.781,-0.453C20.363,-0.148 19.973,-0.031 19.609,-0.094C19.254,-0.156 18.926,-0.273 18.625,-0.453C18.445,-0.805 18.359,-1.164 18.359,-1.531C18.297,-1.645 18.281,-1.758 18.313,-1.875C18.344,-2 18.359,-2.125 18.359,-2.25C18.359,-2.426 18.367,-2.602 18.391,-2.781C18.422,-2.969 18.41,-3.148 18.359,-3.328C18.172,-3.805 18.141,-4.348 18.266,-4.953C18.266,-5.129 18.203,-5.398 18.078,-5.766C18.078,-5.879 18.063,-5.992 18.031,-6.109C18.008,-6.234 18,-6.359 18,-6.484C17.938,-6.773 17.906,-7.086 17.906,-7.422L17.906,-8.453C17.844,-8.578 17.797,-8.664 17.766,-8.719C17.734,-8.781 17.691,-8.844 17.641,-8.906L17.453,-8.906C17.453,-8.539 17.395,-8.117 17.281,-7.641ZM13.406,-46.875C13.707,-46.695 13.883,-46.609 13.938,-46.609C14,-46.609 14.063,-46.727 14.125,-46.969C14.063,-46.969 13.969,-46.953 13.844,-46.922C13.727,-46.891 13.582,-46.875 13.406,-46.875ZM1.891,-38.859C2.484,-38.266 2.57,-37.609 2.156,-36.891C2.094,-37.242 2.047,-37.57 2.016,-37.875C1.992,-38.176 1.953,-38.504 1.891,-38.859ZM1.891,-39.141C1.891,-39.379 1.875,-39.602 1.844,-39.813C1.813,-40.02 1.797,-40.242 1.797,-40.484C2.098,-40.242 2.188,-40.02 2.063,-39.813C1.945,-39.602 1.945,-39.379 2.063,-39.141L1.891,-39.141ZM17.281,-7.641C17.395,-7.461 17.469,-7.328 17.5,-7.234C17.531,-7.148 17.484,-6.926 17.359,-6.563C17.18,-6.75 17.109,-6.93 17.141,-7.109C17.172,-7.285 17.219,-7.461 17.281,-7.641ZM17.453,-13.5L17.453,-12.781L17.359,-12.781L17.359,-13.578C17.422,-13.523 17.453,-13.5 17.453,-13.5ZM17.281,-11.344C17.395,-11.281 17.469,-11.203 17.5,-11.109C17.531,-11.016 17.547,-10.969 17.547,-10.969C17.547,-10.914 17.531,-10.859 17.5,-10.797C17.469,-10.734 17.453,-10.672 17.453,-10.609C17.391,-10.609 17.344,-10.625 17.313,-10.656C17.289,-10.688 17.281,-10.703 17.281,-10.703L17.281,-11.344ZM17.359,-6.125L17.359,-5.484L17.281,-5.484L17.281,-6.125L17.359,-6.125Z" style="fill:rgb(136,136,136);fill-rule:nonzero;"/>
            </g>
        </g>
    </g>
    <g transform="matrix(1.33333,0,0,1.33333,0,1.33333e-06)">
        <clipPath id="_clip1">
            <rect x="22.414" y="21.277" width="114.129" height="107.352"/>
        </clipPath>
        <g clip-path="url(#_clip1)">
            <path d="M70.391,128.133C70.613,127.77 69.074,127.559 66.18,127.559C63.246,127.559 61.027,127.254 59.969,126.699C59.063,126.23 57.871,125.84 57.316,125.84C56.766,125.836 56.313,125.578 56.313,125.262C56.313,124.945 55.785,124.688 55.145,124.688C54.504,124.688 53.828,124.297 53.645,123.824C53.465,123.352 53.012,122.961 52.641,122.961C52.273,122.961 51.59,122.414 51.125,121.742C50.66,121.074 49.953,120.188 49.559,119.773C49.164,119.359 48.844,118.73 48.844,118.375C48.844,118.016 48.617,117.863 48.34,118.035C48.063,118.207 47.672,117.316 47.469,116.059C47.27,114.801 46.848,113.77 46.535,113.77C45.832,113.77 45.77,105.344 46.469,104.91C46.746,104.738 47.133,103.785 47.332,102.789C47.531,101.789 48.176,100.559 48.762,100.047C49.348,99.535 50.012,98.531 50.238,97.816C50.465,97.102 50.859,96.648 51.121,96.809C51.379,96.969 51.758,96.434 51.965,95.617C52.289,94.324 53.188,93.289 56.168,90.773C56.563,90.441 56.887,89.66 56.887,89.039C56.887,88.422 57.121,87.914 57.402,87.914C57.688,87.914 58.102,86.363 58.324,84.465C58.543,82.57 58.957,81.02 59.242,81.02C59.527,81.02 59.758,80.648 59.758,80.195C59.758,79.746 60.336,79.293 61.039,79.191C61.742,79.09 62.641,78.363 63.039,77.57C63.438,76.781 63.77,76.379 63.773,76.68C63.777,76.98 64.09,76.918 64.469,76.535C64.852,76.156 65.625,75.848 66.195,75.848C66.762,75.848 67.227,75.516 67.227,75.109C67.227,74.703 67.766,74.328 68.422,74.277C69.082,74.23 70.281,73.527 71.086,72.719C71.98,71.828 73.203,71.25 74.203,71.25C75.105,71.25 75.848,70.992 75.848,70.676C75.848,70.359 76.754,70.102 77.859,70.102C78.965,70.102 79.871,70.359 79.871,70.676C79.871,70.992 81.031,71.25 82.453,71.25C84.043,71.25 85.039,71.512 85.039,71.922C85.039,72.289 85.203,72.43 85.398,72.234C85.93,71.703 90.605,74.336 92.215,76.07C92.98,76.895 93.891,77.57 94.242,77.57C94.59,77.57 94.73,77.809 94.551,78.098C94.371,78.391 95,78.797 95.953,79.008C96.902,79.215 97.68,79.645 97.68,79.957C97.68,80.672 98.668,81.66 100.699,82.992C101.566,83.559 102.277,84.27 102.277,84.574C102.277,85.316 103.77,86.766 104.535,86.766C104.875,86.766 105.152,87.281 105.152,87.914C105.152,88.547 105.406,89.063 105.715,89.063C106.023,89.063 106.441,89.711 106.641,90.5C106.836,91.289 107.211,91.938 107.473,91.938C107.734,91.938 108.129,92.504 108.348,93.203C108.57,93.898 109.105,94.82 109.535,95.254C109.969,95.688 110.32,96.41 110.32,96.859C110.32,97.313 110.582,97.68 110.898,97.68C111.211,97.68 111.473,98.328 111.473,99.117C111.473,99.906 111.719,100.555 112.02,100.555C112.32,100.555 112.738,101.461 112.945,102.566C113.152,103.672 113.523,104.578 113.77,104.578C114.016,104.578 114.387,105.48 114.594,106.586C114.801,107.695 115.219,108.598 115.52,108.598C115.82,108.598 116.066,110.148 116.066,112.047C116.066,113.961 115.813,115.492 115.492,115.492C115.176,115.492 114.918,116.02 114.918,116.66C114.918,117.301 114.508,117.984 114.008,118.176C113.313,118.445 113.27,118.633 113.824,118.977C114.293,119.266 113.797,119.566 112.438,119.82C111.273,120.039 110.32,120.449 110.32,120.73C110.32,121.008 109.926,121.238 109.441,121.238C108.957,121.238 108.414,121.629 108.23,122.102C108.051,122.574 107.563,122.965 107.148,122.965C106.734,122.965 106.305,123.234 106.195,123.566C106.086,123.895 104.512,124.32 102.699,124.508C100.887,124.695 99.406,125.047 99.406,125.289C99.406,125.531 96.043,125.918 91.934,126.145C87.828,126.371 84.465,126.785 84.465,127.059C84.465,127.336 83.043,127.559 81.305,127.559C79.566,127.559 78.145,127.816 78.145,128.133C78.145,128.465 76.41,128.707 74.09,128.707C71.531,128.707 70.164,128.496 70.387,128.133L70.391,128.133ZM77.68,70.855C77.266,70.691 76.77,70.711 76.578,70.902C76.387,71.094 76.727,71.23 77.332,71.203C78,71.176 78.137,71.039 77.68,70.855ZM35.348,92.793C34.406,92.281 33.168,91.363 32.598,90.75C32.027,90.137 31.34,89.637 31.07,89.637C30.801,89.637 30.418,88.988 30.219,88.199C30.02,87.41 29.605,86.762 29.297,86.762C28.984,86.762 28.73,86.109 28.73,85.309C28.73,84.508 28.344,83.707 27.871,83.523C27.395,83.34 27.008,82.719 27.008,82.141C27.008,81.559 26.773,80.941 26.488,80.762C26.199,80.586 25.781,79.086 25.555,77.426C25.328,75.766 24.852,74.227 24.496,74C24.074,73.734 23.848,71.227 23.848,66.82L23.848,60.051L25.859,59.363C26.965,58.984 27.613,58.645 27.297,58.609C26.98,58.574 27.625,58.223 28.73,57.828C30.785,57.094 33.902,57.602 33.902,58.664C33.902,58.949 34.422,59.184 35.051,59.184C35.684,59.184 36.203,59.441 36.203,59.758C36.203,60.074 36.48,60.332 36.82,60.332C37.164,60.332 38.605,61.496 40.027,62.918C41.449,64.34 42.844,65.504 43.129,65.504C43.414,65.504 43.813,66.152 44.008,66.941C44.207,67.73 44.566,68.379 44.809,68.379C45.051,68.379 45.414,69.41 45.613,70.676C45.816,71.938 46.234,72.973 46.539,72.973C46.848,72.973 47.258,73.621 47.457,74.41C47.656,75.199 48.047,75.848 48.328,75.848C48.613,75.848 48.844,76.363 48.844,76.996C48.844,77.629 49.102,78.145 49.418,78.145C49.75,78.145 49.992,80.047 49.992,82.707C49.992,85.219 49.734,87.43 49.418,87.625C49.102,87.82 48.844,88.496 48.844,89.129C48.844,89.762 48.582,90.117 48.266,89.922C47.953,89.727 47.691,89.98 47.691,90.48C47.691,90.984 47.242,91.563 46.688,91.766C46.133,91.973 45.516,92.383 45.316,92.684C45.113,92.984 43.176,93.34 41.008,93.477C38.086,93.66 36.617,93.484 35.348,92.793ZM116.293,91.125C116.125,90.68 115.375,90.16 114.629,89.973C113.883,89.785 113.09,89.051 112.867,88.344C112.645,87.633 112.305,86.922 112.109,86.762C110.965,85.832 110.32,83.445 110.32,80.129C110.32,77.531 110.125,76.477 109.688,76.742C109.23,77.027 109.23,76.813 109.688,75.953C110.035,75.305 110.32,73.848 110.32,72.719C110.32,71.375 110.719,70.324 111.469,69.68C112.102,69.141 112.625,68.043 112.629,67.242C112.637,65.973 113.738,63.332 113.758,64.527C113.781,65.691 116.641,61.73 116.641,60.535C116.641,59.68 116.977,59.184 117.559,59.184C118.063,59.184 119.207,58.664 120.098,58.027C122.762,56.133 132.156,56.574 132.156,58.594C132.156,58.918 132.5,59.184 132.926,59.184C133.73,59.184 135.027,61.508 135.027,62.945C135.027,63.406 135.285,63.781 135.602,63.781C135.949,63.781 136.176,66.176 136.176,69.813C136.176,73.133 135.953,75.848 135.676,75.848C135.402,75.848 135.008,76.898 134.801,78.184C134.586,79.52 133.816,81.133 133.004,81.945C132.223,82.727 131.582,83.746 131.582,84.203C131.582,84.664 131.32,85.039 131.008,85.039C130.691,85.039 130.43,85.438 130.43,85.918C130.43,86.402 130.07,86.938 129.625,87.109C129.184,87.277 128.691,87.914 128.531,88.523C128.371,89.133 127.637,89.875 126.895,90.172C126.098,90.492 125.898,90.742 126.41,90.789C128.828,91.004 124.484,91.859 120.789,91.895C117.691,91.926 116.523,91.723 116.293,91.125ZM22.504,64.93C22.504,64.137 22.633,63.816 22.793,64.211C22.953,64.605 22.953,65.25 22.793,65.648C22.633,66.043 22.504,65.719 22.504,64.93ZM58.793,64.523C59.008,64.176 58.473,63.781 57.531,63.594C55.672,63.219 51.715,59.645 51.715,58.332C51.715,57.852 51.473,57.461 51.176,57.461C50.879,57.461 50.461,56.297 50.25,54.879C50.035,53.461 49.633,52.441 49.352,52.613C49.07,52.789 48.844,52.125 48.844,51.141C48.844,50.09 48.605,49.496 48.27,49.703C47.93,49.91 47.676,49.27 47.652,48.156C47.531,42.211 47.09,33.398 46.852,32.035C46.699,31.164 46.824,30.453 47.133,30.453C47.441,30.453 47.691,29.664 47.691,28.695C47.691,27.672 47.934,27.086 48.27,27.293C48.582,27.488 48.844,27.246 48.844,26.754C48.844,26.262 49.23,25.855 49.703,25.855C50.18,25.855 50.566,25.441 50.566,24.934C50.566,24.234 50.918,24.098 52.004,24.371C53.063,24.637 53.438,24.5 53.438,23.855C53.438,22.863 55.746,22.668 57.324,23.527C57.875,23.828 59.293,24.227 60.477,24.414C61.664,24.605 62.633,24.988 62.633,25.266C62.633,25.895 66.004,29.305 66.625,29.305C66.875,29.305 67.242,30.316 67.441,31.555C67.641,32.793 67.996,33.891 68.234,33.996C68.473,34.102 69.184,35.207 69.813,36.449C70.816,38.418 70.957,39.785 70.91,46.988C70.883,51.828 70.621,55.422 70.285,55.645C69.969,55.852 69.547,56.848 69.352,57.859C68.945,59.934 67.355,62.055 66.207,62.055C65.781,62.055 65.57,62.273 65.734,62.539C65.898,62.801 64.816,63.301 63.328,63.645C61.84,63.992 60.125,64.465 59.52,64.699C58.813,64.973 58.555,64.91 58.793,64.523ZM90.785,59.758C90.785,59.441 90.332,59.18 89.781,59.172C88.398,59.16 86.188,56.707 86.188,55.191C86.188,54.504 85.93,54.105 85.613,54.301C85.242,54.531 85.039,51.656 85.039,46.098C85.039,41.391 84.863,37.363 84.645,37.145C84.426,36.926 84.316,35.395 84.402,33.746C84.566,30.633 86.273,27.008 87.582,27.008C87.977,27.008 88.613,26.328 88.992,25.496C89.371,24.664 89.828,24.133 90.008,24.313C90.191,24.496 91.207,24.176 92.27,23.605C94.359,22.488 99.227,22.352 99.887,23.395C100.094,23.727 101.547,24.125 103.113,24.277C104.68,24.434 106.07,24.879 106.199,25.273C106.332,25.668 106.926,26.402 107.52,26.914C108.113,27.422 108.598,28.145 108.598,28.523C108.598,28.898 108.914,29.316 109.301,29.445C110.273,29.77 110.332,45.25 109.363,45.852C108.992,46.078 108.512,46.977 108.293,47.84C108.078,48.707 107.688,49.414 107.434,49.414C107.176,49.414 106.797,50.191 106.586,51.141C106.379,52.086 105.969,52.863 105.68,52.863C105.387,52.863 105.152,53.262 105.152,53.75C105.152,54.836 102.422,57.461 101.297,57.461C100.852,57.461 100.629,57.688 100.801,57.969C100.977,58.254 100.215,58.652 99.113,58.859C98.008,59.066 97.105,59.48 97.105,59.785C97.105,60.086 95.684,60.332 93.945,60.332C92.207,60.332 90.785,60.074 90.785,59.758ZM96.113,21.488C96.305,21.297 96.801,21.277 97.215,21.441C97.672,21.625 97.535,21.762 96.867,21.789C96.262,21.816 95.922,21.68 96.113,21.488Z" style="fill:rgb(136,136,136);fill-rule:nonzero;"/>
        </g>
    </g>
</svg>
